<svg width="64" height="64" viewBox="0 0 64 64" fill="none" xmlns="http://www.w3.org/2000/svg">
<circle cx="31.8831" cy="31.8831" r="31.8831" fill="#4000DC"/>
<path fill-rule="evenodd" clip-rule="evenodd" d="M31.8831 0C49.4917 0 63.7663 14.2746 63.7663 31.8832C63.7663 49.4918 49.4917 63.7663 31.8831 63.7663C14.2746 63.7663 1.23267e-05 49.4918 0 31.8832C0 14.2746 14.2746 0 31.8831 0ZM24.6079 42.0053H31.8833H38.9714L42.5109 38.4628V34.9202H21.2557V38.4628L24.6079 42.0053ZM7.0852 24.2925C7.0852 26.2489 8.67118 27.8351 10.6276 27.8351C12.584 27.8351 14.17 26.2489 14.17 24.2925C14.17 22.3361 12.584 20.75 10.6276 20.75C8.67118 20.75 7.0852 22.3361 7.0852 24.2925ZM49.5961 24.2925C49.5961 26.249 51.1822 27.8351 53.1387 27.8351C55.0952 27.8351 56.6812 26.249 56.6812 24.2925C56.6812 22.336 55.0952 20.75 53.1387 20.75C51.1822 20.75 49.5961 22.336 49.5961 24.2925Z" fill="#75F1EA"/>
</svg>
