<svg xmlns="http://www.w3.org/2000/svg" fill="none" viewBox="0 0 180 180">
  <path fill="#75F1EA" fill-rule="evenodd" d="M89.8.2a89.7 89.7 0 1 1 0 179.4A89.7 89.7 0 0 1 89.8.2Z" clip-rule="evenodd"/>
  <path fill="url(#a)" fill-opacity=".1" fill-rule="evenodd" d="M89.8.2a89.7 89.7 0 1 1 0 179.4A89.7 89.7 0 0 1 89.8.2Z" clip-rule="evenodd" style="mix-blend-mode:plus-lighter"/>
  <path fill="url(#b)" fill-opacity=".2" fill-rule="evenodd" d="M89.8.2a89.7 89.7 0 1 1 0 179.4A89.7 89.7 0 0 1 89.8.2Z" clip-rule="evenodd"/>
  <g fill="#4D00FF" filter="url(#c)">
    <path d="M117.6 118.4H62c-1.1 0-2-1-2-2.1v-15.7a2 2 0 0 1 2-2.1h55.6a2 2 0 0 1 2.1 2v15.8a2 2 0 0 1-2 2.1ZM37.9 78.5H22a2 2 0 0 1-2-2V60.6a2 2 0 0 1 2-2.1h16c1.1 0 2 1 2 2v15.8a2 2 0 0 1-2 2.1Zm119.6 0h-15.7a2 2 0 0 1-2.1-2V60.6a2 2 0 0 1 2-2.1h15.8c1.1 0 2 1 2 2v15.8a2 2 0 0 1-2 2.1Z"/>
  </g>
  <defs>
    <radialGradient id="a" cx="0" cy="0" r="1" gradientTransform="matrix(0 90 -90 0 89.8 90)" gradientUnits="userSpaceOnUse">
      <stop stop-color="#FF6ADA" stop-opacity="0"/>
      <stop offset="1" stop-color="#FF6ADA"/>
    </radialGradient>
    <linearGradient id="b" x1="89.8" x2="89.8" y1=".2" y2="179.6" gradientUnits="userSpaceOnUse">
      <stop stop-color="#4D00FF" stop-opacity="0"/>
      <stop offset="1" stop-color="#4D00FF"/>
    </linearGradient>
    <filter id="c" width="139.6" height="60.5" x="20" y="58.6" color-interpolation-filters="sRGB" filterUnits="userSpaceOnUse">
      <feFlood flood-opacity="0" result="BackgroundImageFix"/>
      <feBlend in="SourceGraphic" in2="BackgroundImageFix" result="shape"/>
      <feColorMatrix in="SourceAlpha" result="hardAlpha" values="0 0 0 0 0 0 0 0 0 0 0 0 0 0 0 0 0 0 127 0"/>
      <feOffset dy=".7"/>
      <feGaussianBlur stdDeviation="2.8"/>
      <feComposite in2="hardAlpha" k2="-1" k3="1" operator="arithmetic"/>
      <feColorMatrix values="0 0 0 0 0 0 0 0 0 0 0 0 0 0 0 0 0 0 0.3 0"/>
      <feBlend in2="shape" result="effect1_innerShadow_15_73"/>
    </filter>
  </defs>
</svg>