<svg width="746" height="100" viewBox="0 0 746 100" fill="none" xmlns="http://www.w3.org/2000/svg">
<path d="M27.5907 99.2462V16.3402H0V5.35748H66.1641V16.3402H38.5734V99.2462H27.5907Z" fill="#F8F8FF"/>
<path d="M177.522 99.2462L141.761 77.5487V5.49141H152.878V35.7608H180.335V46.8775H152.878V71.3876L183.281 89.8707L177.522 99.2462Z" fill="#F8F8FF"/>
<path d="M199.661 99.2462V35.7608H249.217V60.1371L210.644 82.6382V88.2635H249.217V99.2462H199.661ZM210.644 69.9143L238.234 53.7082V46.8775H210.644V69.9143Z" fill="#F8F8FF"/>
<path d="M271.201 99.2462V35.7608H364.956V99.2462H353.973V46.8775H323.57V99.2462H312.587V46.8775H282.05V99.2462H271.201Z" fill="#F8F8FF"/>
<path d="M471.233 99.2462C445.249 99.2462 424.355 78.2183 424.355 52.3688C424.355 26.3853 445.249 5.49141 471.233 5.49141C483.555 5.49141 495.743 10.447 504.449 19.1528L496.547 26.9211C489.716 20.2243 480.742 16.4741 471.233 16.4741C451.41 16.4741 435.338 32.5464 435.338 52.3688C435.338 72.0573 451.277 88.2635 471.233 88.2635C489.18 88.2635 504.047 75.0039 506.592 57.8602H451.946V46.8775H518.11V99.2462H506.994V82.6382C497.216 93.6209 485.028 99.2462 471.233 99.2462Z" fill="#F8F8FF"/>
<path d="M537.761 99.2462V35.7608H548.744V55.3154L581.826 35.7608L587.451 45.2702L548.744 68.1732V99.2462H537.761Z" fill="#F8F8FF"/>
<path d="M602.491 99.2462V88.2635H624.456V48.2168L605.303 59.8692L599.544 50.3598L623.92 35.7608H635.573V88.2635H657.538V99.2462H602.491ZM618.965 10.9828C618.965 4.95567 623.92 6.10352e-05 630.081 6.10352e-05C636.108 6.10352e-05 641.064 4.95567 641.064 10.9828C641.064 17.0099 636.108 21.9655 630.081 21.9655C623.92 21.9655 618.965 17.0099 618.965 10.9828Z" fill="#F8F8FF"/>
<path d="M697.305 99.2462C679.76 99.2462 665.697 85.183 665.697 67.6374C665.697 49.5562 680.162 35.7608 697.305 35.7608C705.208 35.7608 712.44 38.7074 718.065 43.5291V5.49141H729.182V79.5577L745.79 89.8707L739.897 99.2462L721.682 87.9956C715.788 94.8263 707.083 99.2462 697.305 99.2462ZM676.679 67.6374C676.679 78.888 686.055 88.2635 697.305 88.2635C708.69 88.2635 718.065 78.888 718.065 67.6374C718.065 56.119 708.69 46.8775 697.305 46.8775C686.055 46.8775 676.679 56.119 676.679 67.6374Z" fill="#F8F8FF"/>
<circle cx="89.6585" cy="67.3631" r="31.8831" fill="#4000DC"/>
<path fill-rule="evenodd" clip-rule="evenodd" d="M89.6585 35.4799C107.267 35.4799 121.542 49.7545 121.542 67.3631C121.542 84.9717 107.267 99.2463 89.6585 99.2463C72.05 99.2463 57.7754 84.9717 57.7754 67.3631C57.7754 49.7545 72.05 35.4799 89.6585 35.4799ZM82.3833 77.4853H89.6587H96.7468L100.286 73.9427V70.4001H79.0311V73.9427L82.3833 77.4853ZM64.8606 59.7725C64.8606 61.7288 66.4466 63.315 68.403 63.315C70.3594 63.315 71.9453 61.7288 71.9453 59.7725C71.9453 57.8161 70.3594 56.2299 68.403 56.2299C66.4466 56.2299 64.8606 57.8161 64.8606 59.7725ZM107.371 59.7725C107.371 61.729 108.958 63.315 110.914 63.315C112.871 63.315 114.457 61.729 114.457 59.7725C114.457 57.816 112.871 56.2299 110.914 56.2299C108.958 56.2299 107.371 57.816 107.371 59.7725Z" fill="#75F1EA"/>
</svg>
