<svg width="256" height="256" viewBox="0 0 256 256" fill="none" xmlns="http://www.w3.org/2000/svg">
<path fill-rule="evenodd" clip-rule="evenodd" d="M128 0C198.692 0 256 57.3077 256 128C256 198.693 198.692 256 128 256C57.3076 256 4.94877e-05 198.693 0 128C0 57.3077 57.3075 0 128 0ZM98.7925 168.637H128.001H156.457L170.667 154.415V140.193H85.3344V154.415L98.7925 168.637ZM28.4447 97.5263C28.4447 105.381 34.8118 111.748 42.6661 111.748C50.5204 111.748 56.8875 105.381 56.8875 97.5263C56.8875 89.672 50.5204 83.3041 42.6661 83.3041C34.8118 83.3041 28.4447 89.672 28.4447 97.5263ZM199.112 97.5263C199.112 105.381 205.479 111.748 213.334 111.748C221.188 111.748 227.556 105.381 227.556 97.5263C227.556 89.6716 221.188 83.3041 213.334 83.3041C205.479 83.3041 199.112 89.6716 199.112 97.5263Z" fill="#75F1EA"/>
<path d="M85.3351 140.222H170.667V154.445L156.458 168.667H128.001H98.7932L85.3351 154.445V140.222Z" fill="#4D00FF"/>
<path d="M199.112 97.5559C199.112 89.7012 205.48 83.3337 213.334 83.3337C221.189 83.3337 227.556 89.7012 227.556 97.5559C227.556 105.411 221.189 111.778 213.334 111.778C205.48 111.778 199.112 105.411 199.112 97.5559Z" fill="#4D00FF"/>
<path d="M28.4453 97.5559C28.4453 89.7016 34.8125 83.3337 42.6667 83.3337C50.521 83.3337 56.8882 89.7016 56.8882 97.5559C56.8882 105.41 50.521 111.778 42.6667 111.778C34.8125 111.778 28.4453 105.41 28.4453 97.5559Z" fill="#4D00FF"/>
</svg>
