<svg width="251" height="305" viewBox="0 0 251 305" fill="none" xmlns="http://www.w3.org/2000/svg">
<rect width="251" height="305" fill="#4D00FF"/>
<path d="M13.5137 13.5135H20.2704V20.2703H13.5137V13.5135Z" fill="#B0FFF9"/>
<path d="M20.2704 13.5135H27.0272V20.2703H20.2704V13.5135Z" fill="#B0FFF9"/>
<path d="M27.0272 13.5135H33.7839V20.2703H27.0272V13.5135Z" fill="#B0FFF9"/>
<path d="M33.7839 13.5135H40.5407V20.2703H33.7839V13.5135Z" fill="#B0FFF9"/>
<path d="M40.5407 13.5135H47.2975V20.2703H40.5407V13.5135Z" fill="#B0FFF9"/>
<path d="M47.2975 13.5135H54.0542V20.2703H47.2975V13.5135Z" fill="#B0FFF9"/>
<path d="M54.0542 13.5135H60.811V20.2703H54.0542V13.5135Z" fill="#B0FFF9"/>
<path d="M87.838 13.5135H94.5948V20.2703H87.838V13.5135Z" fill="#B0FFF9"/>
<path d="M101.352 13.5135H108.108V20.2703H101.352V13.5135Z" fill="#B0FFF9"/>
<path d="M121.622 13.5135H128.379V20.2703H121.622V13.5135Z" fill="#B0FFF9"/>
<path d="M141.892 13.5135H148.649V20.2703H141.892V13.5135Z" fill="#B0FFF9"/>
<path d="M148.649 13.5135H155.406V20.2703H148.649V13.5135Z" fill="#B0FFF9"/>
<path d="M155.406 13.5135H162.162V20.2703H155.406V13.5135Z" fill="#B0FFF9"/>
<path d="M162.162 13.5135H168.919V20.2703H162.162V13.5135Z" fill="#B0FFF9"/>
<path d="M175.676 13.5135H182.433V20.2703H175.676V13.5135Z" fill="#B0FFF9"/>
<path d="M189.189 13.5135H195.946V20.2703H189.189V13.5135Z" fill="#B0FFF9"/>
<path d="M195.946 13.5135H202.703V20.2703H195.946V13.5135Z" fill="#B0FFF9"/>
<path d="M202.703 13.5135H209.46V20.2703H202.703V13.5135Z" fill="#B0FFF9"/>
<path d="M209.46 13.5135H216.216V20.2703H209.46V13.5135Z" fill="#B0FFF9"/>
<path d="M216.216 13.5135H222.973V20.2703H216.216V13.5135Z" fill="#B0FFF9"/>
<path d="M222.973 13.5135H229.73V20.2703H222.973V13.5135Z" fill="#B0FFF9"/>
<path d="M229.73 13.5135H236.487V20.2703H229.73V13.5135Z" fill="#B0FFF9"/>
<path d="M13.5137 20.2703H20.2704V27.027H13.5137V20.2703Z" fill="#B0FFF9"/>
<path d="M54.0542 20.2703H60.811V27.027H54.0542V20.2703Z" fill="#B0FFF9"/>
<path d="M87.838 20.2703H94.5948V27.027H87.838V20.2703Z" fill="#B0FFF9"/>
<path d="M101.352 20.2703H108.108V27.027H101.352V20.2703Z" fill="#B0FFF9"/>
<path d="M108.108 20.2703H114.865V27.027H108.108V20.2703Z" fill="#B0FFF9"/>
<path d="M114.865 20.2703H121.622V27.027H114.865V20.2703Z" fill="#B0FFF9"/>
<path d="M121.622 20.2703H128.379V27.027H121.622V20.2703Z" fill="#B0FFF9"/>
<path d="M135.135 20.2703H141.892V27.027H135.135V20.2703Z" fill="#B0FFF9"/>
<path d="M148.649 20.2703H155.406V27.027H148.649V20.2703Z" fill="#B0FFF9"/>
<path d="M155.406 20.2703H162.162V27.027H155.406V20.2703Z" fill="#B0FFF9"/>
<path d="M175.676 20.2703H182.433V27.027H175.676V20.2703Z" fill="#B0FFF9"/>
<path d="M189.189 20.2703H195.946V27.027H189.189V20.2703Z" fill="#B0FFF9"/>
<path d="M229.73 20.2703H236.487V27.027H229.73V20.2703Z" fill="#B0FFF9"/>
<path d="M13.5137 27.027H20.2704V33.7838H13.5137V27.027Z" fill="#B0FFF9"/>
<path d="M27.0272 27.027H33.7839V33.7838H27.0272V27.027Z" fill="#B0FFF9"/>
<path d="M33.7839 27.027H40.5407V33.7838H33.7839V27.027Z" fill="#B0FFF9"/>
<path d="M40.5407 27.027H47.2975V33.7838H40.5407V27.027Z" fill="#B0FFF9"/>
<path d="M54.0542 27.027H60.811V33.7838H54.0542V27.027Z" fill="#B0FFF9"/>
<path d="M67.5677 27.027H74.3245V33.7838H67.5677V27.027Z" fill="#B0FFF9"/>
<path d="M81.0812 27.027H87.838V33.7838H81.0812V27.027Z" fill="#B0FFF9"/>
<path d="M87.838 27.027H94.5948V33.7838H87.838V27.027Z" fill="#B0FFF9"/>
<path d="M94.5948 27.027H101.352V33.7838H94.5948V27.027Z" fill="#B0FFF9"/>
<path d="M101.352 27.027H108.108V33.7838H101.352V27.027Z" fill="#B0FFF9"/>
<path d="M114.865 27.027H121.622V33.7838H114.865V27.027Z" fill="#B0FFF9"/>
<path d="M128.379 27.027H135.135V33.7838H128.379V27.027Z" fill="#B0FFF9"/>
<path d="M141.892 27.027H148.649V33.7838H141.892V27.027Z" fill="#B0FFF9"/>
<path d="M155.406 27.027H162.162V33.7838H155.406V27.027Z" fill="#B0FFF9"/>
<path d="M162.162 27.027H168.919V33.7838H162.162V27.027Z" fill="#B0FFF9"/>
<path d="M168.919 27.027H175.676V33.7838H168.919V27.027Z" fill="#B0FFF9"/>
<path d="M175.676 27.027H182.433V33.7838H175.676V27.027Z" fill="#B0FFF9"/>
<path d="M189.189 27.027H195.946V33.7838H189.189V27.027Z" fill="#B0FFF9"/>
<path d="M202.703 27.027H209.46V33.7838H202.703V27.027Z" fill="#B0FFF9"/>
<path d="M209.46 27.027H216.216V33.7838H209.46V27.027Z" fill="#B0FFF9"/>
<path d="M216.216 27.027H222.973V33.7838H216.216V27.027Z" fill="#B0FFF9"/>
<path d="M229.73 27.027H236.487V33.7838H229.73V27.027Z" fill="#B0FFF9"/>
<path d="M13.5137 33.7838H20.2704V40.5405H13.5137V33.7838Z" fill="#B0FFF9"/>
<path d="M27.0272 33.7838H33.7839V40.5405H27.0272V33.7838Z" fill="#B0FFF9"/>
<path d="M33.7839 33.7838H40.5407V40.5405H33.7839V33.7838Z" fill="#B0FFF9"/>
<path d="M40.5407 33.7838H47.2975V40.5405H40.5407V33.7838Z" fill="#B0FFF9"/>
<path d="M54.0542 33.7838H60.811V40.5405H54.0542V33.7838Z" fill="#B0FFF9"/>
<path d="M67.5677 33.7838H74.3245V40.5405H67.5677V33.7838Z" fill="#B0FFF9"/>
<path d="M94.5948 33.7838H101.352V40.5405H94.5948V33.7838Z" fill="#B0FFF9"/>
<path d="M114.865 33.7838H121.622V40.5405H114.865V33.7838Z" fill="#B0FFF9"/>
<path d="M135.135 33.7838H141.892V40.5405H135.135V33.7838Z" fill="#B0FFF9"/>
<path d="M155.406 33.7838H162.162V40.5405H155.406V33.7838Z" fill="#B0FFF9"/>
<path d="M168.919 33.7838H175.676V40.5405H168.919V33.7838Z" fill="#B0FFF9"/>
<path d="M175.676 33.7838H182.433V40.5405H175.676V33.7838Z" fill="#B0FFF9"/>
<path d="M189.189 33.7838H195.946V40.5405H189.189V33.7838Z" fill="#B0FFF9"/>
<path d="M202.703 33.7838H209.46V40.5405H202.703V33.7838Z" fill="#B0FFF9"/>
<path d="M209.46 33.7838H216.216V40.5405H209.46V33.7838Z" fill="#B0FFF9"/>
<path d="M216.216 33.7838H222.973V40.5405H216.216V33.7838Z" fill="#B0FFF9"/>
<path d="M229.73 33.7838H236.487V40.5405H229.73V33.7838Z" fill="#B0FFF9"/>
<path d="M13.5137 40.5405H20.2704V47.2973H13.5137V40.5405Z" fill="#B0FFF9"/>
<path d="M27.0272 40.5405H33.7839V47.2973H27.0272V40.5405Z" fill="#B0FFF9"/>
<path d="M33.7839 40.5405H40.5407V47.2973H33.7839V40.5405Z" fill="#B0FFF9"/>
<path d="M40.5407 40.5405H47.2975V47.2973H40.5407V40.5405Z" fill="#B0FFF9"/>
<path d="M54.0542 40.5405H60.811V47.2973H54.0542V40.5405Z" fill="#B0FFF9"/>
<path d="M74.3245 40.5405H81.0812V47.2973H74.3245V40.5405Z" fill="#B0FFF9"/>
<path d="M81.0812 40.5405H87.838V47.2973H81.0812V40.5405Z" fill="#B0FFF9"/>
<path d="M121.622 40.5405H128.379V47.2973H121.622V40.5405Z" fill="#B0FFF9"/>
<path d="M128.379 40.5405H135.135V47.2973H128.379V40.5405Z" fill="#B0FFF9"/>
<path d="M135.135 40.5405H141.892V47.2973H135.135V40.5405Z" fill="#B0FFF9"/>
<path d="M148.649 40.5405H155.406V47.2973H148.649V40.5405Z" fill="#B0FFF9"/>
<path d="M155.406 40.5405H162.162V47.2973H155.406V40.5405Z" fill="#B0FFF9"/>
<path d="M168.919 40.5405H175.676V47.2973H168.919V40.5405Z" fill="#B0FFF9"/>
<path d="M189.189 40.5405H195.946V47.2973H189.189V40.5405Z" fill="#B0FFF9"/>
<path d="M202.703 40.5405H209.46V47.2973H202.703V40.5405Z" fill="#B0FFF9"/>
<path d="M209.46 40.5405H216.216V47.2973H209.46V40.5405Z" fill="#B0FFF9"/>
<path d="M216.216 40.5405H222.973V47.2973H216.216V40.5405Z" fill="#B0FFF9"/>
<path d="M229.73 40.5405H236.487V47.2973H229.73V40.5405Z" fill="#B0FFF9"/>
<path d="M13.5137 47.2973H20.2704V54.0541H13.5137V47.2973Z" fill="#B0FFF9"/>
<path d="M54.0542 47.2973H60.811V54.0541H54.0542V47.2973Z" fill="#B0FFF9"/>
<path d="M74.3245 47.2973H81.0812V54.0541H74.3245V47.2973Z" fill="#B0FFF9"/>
<path d="M81.0812 47.2973H87.838V54.0541H81.0812V47.2973Z" fill="#B0FFF9"/>
<path d="M108.108 47.2973H114.865V54.0541H108.108V47.2973Z" fill="#B0FFF9"/>
<path d="M114.865 47.2973H121.622V54.0541H114.865V47.2973Z" fill="#B0FFF9"/>
<path d="M141.892 47.2973H148.649V54.0541H141.892V47.2973Z" fill="#B0FFF9"/>
<path d="M148.649 47.2973H155.406V54.0541H148.649V47.2973Z" fill="#B0FFF9"/>
<path d="M175.676 47.2973H182.433V54.0541H175.676V47.2973Z" fill="#B0FFF9"/>
<path d="M189.189 47.2973H195.946V54.0541H189.189V47.2973Z" fill="#B0FFF9"/>
<path d="M229.73 47.2973H236.487V54.0541H229.73V47.2973Z" fill="#B0FFF9"/>
<path d="M13.5137 54.0541H20.2704V60.8108H13.5137V54.0541Z" fill="#B0FFF9"/>
<path d="M20.2704 54.0541H27.0272V60.8108H20.2704V54.0541Z" fill="#B0FFF9"/>
<path d="M27.0272 54.0541H33.7839V60.8108H27.0272V54.0541Z" fill="#B0FFF9"/>
<path d="M33.7839 54.0541H40.5407V60.8108H33.7839V54.0541Z" fill="#B0FFF9"/>
<path d="M40.5407 54.0541H47.2975V60.8108H40.5407V54.0541Z" fill="#B0FFF9"/>
<path d="M47.2975 54.0541H54.0542V60.8108H47.2975V54.0541Z" fill="#B0FFF9"/>
<path d="M54.0542 54.0541H60.811V60.8108H54.0542V54.0541Z" fill="#B0FFF9"/>
<path d="M67.5677 54.0541H74.3245V60.8108H67.5677V54.0541Z" fill="#B0FFF9"/>
<path d="M81.0812 54.0541H87.838V60.8108H81.0812V54.0541Z" fill="#B0FFF9"/>
<path d="M94.5948 54.0541H101.352V60.8108H94.5948V54.0541Z" fill="#B0FFF9"/>
<path d="M108.108 54.0541H114.865V60.8108H108.108V54.0541Z" fill="#B0FFF9"/>
<path d="M121.622 54.0541H128.379V60.8108H121.622V54.0541Z" fill="#B0FFF9"/>
<path d="M135.135 54.0541H141.892V60.8108H135.135V54.0541Z" fill="#B0FFF9"/>
<path d="M148.649 54.0541H155.406V60.8108H148.649V54.0541Z" fill="#B0FFF9"/>
<path d="M162.162 54.0541H168.919V60.8108H162.162V54.0541Z" fill="#B0FFF9"/>
<path d="M175.676 54.0541H182.433V60.8108H175.676V54.0541Z" fill="#B0FFF9"/>
<path d="M189.189 54.0541H195.946V60.8108H189.189V54.0541Z" fill="#B0FFF9"/>
<path d="M195.946 54.0541H202.703V60.8108H195.946V54.0541Z" fill="#B0FFF9"/>
<path d="M202.703 54.0541H209.46V60.8108H202.703V54.0541Z" fill="#B0FFF9"/>
<path d="M209.46 54.0541H216.216V60.8108H209.46V54.0541Z" fill="#B0FFF9"/>
<path d="M216.216 54.0541H222.973V60.8108H216.216V54.0541Z" fill="#B0FFF9"/>
<path d="M222.973 54.0541H229.73V60.8108H222.973V54.0541Z" fill="#B0FFF9"/>
<path d="M229.73 54.0541H236.487V60.8108H229.73V54.0541Z" fill="#B0FFF9"/>
<path d="M87.838 60.8108H94.5948V67.5676H87.838V60.8108Z" fill="#B0FFF9"/>
<path d="M101.352 60.8108H108.108V67.5676H101.352V60.8108Z" fill="#B0FFF9"/>
<path d="M108.108 60.8108H114.865V67.5676H108.108V60.8108Z" fill="#B0FFF9"/>
<path d="M114.865 60.8108H121.622V67.5676H114.865V60.8108Z" fill="#B0FFF9"/>
<path d="M121.622 60.8108H128.379V67.5676H121.622V60.8108Z" fill="#B0FFF9"/>
<path d="M135.135 60.8108H141.892V67.5676H135.135V60.8108Z" fill="#B0FFF9"/>
<path d="M168.919 60.8108H175.676V67.5676H168.919V60.8108Z" fill="#B0FFF9"/>
<path d="M33.7839 67.5676H40.5407V74.3243H33.7839V67.5676Z" fill="#B0FFF9"/>
<path d="M40.5407 67.5676H47.2975V74.3243H40.5407V67.5676Z" fill="#B0FFF9"/>
<path d="M54.0542 67.5676H60.811V74.3243H54.0542V67.5676Z" fill="#B0FFF9"/>
<path d="M60.811 67.5676H67.5677V74.3243H60.811V67.5676Z" fill="#B0FFF9"/>
<path d="M74.3245 67.5676H81.0812V74.3243H74.3245V67.5676Z" fill="#B0FFF9"/>
<path d="M87.838 67.5676H94.5948V74.3243H87.838V67.5676Z" fill="#B0FFF9"/>
<path d="M94.5948 67.5676H101.352V74.3243H94.5948V67.5676Z" fill="#B0FFF9"/>
<path d="M101.352 67.5676H108.108V74.3243H101.352V67.5676Z" fill="#B0FFF9"/>
<path d="M108.108 67.5676H114.865V74.3243H108.108V67.5676Z" fill="#B0FFF9"/>
<path d="M121.622 67.5676H128.379V74.3243H121.622V67.5676Z" fill="#B0FFF9"/>
<path d="M135.135 67.5676H141.892V74.3243H135.135V67.5676Z" fill="#B0FFF9"/>
<path d="M141.892 67.5676H148.649V74.3243H141.892V67.5676Z" fill="#B0FFF9"/>
<path d="M148.649 67.5676H155.406V74.3243H148.649V67.5676Z" fill="#B0FFF9"/>
<path d="M168.919 67.5676H175.676V74.3243H168.919V67.5676Z" fill="#B0FFF9"/>
<path d="M209.46 67.5676H216.216V74.3243H209.46V67.5676Z" fill="#B0FFF9"/>
<path d="M216.216 67.5676H222.973V74.3243H216.216V67.5676Z" fill="#B0FFF9"/>
<path d="M13.5137 74.3243H20.2704V81.0811H13.5137V74.3243Z" fill="#B0FFF9"/>
<path d="M20.2704 74.3243H27.0272V81.0811H20.2704V74.3243Z" fill="#B0FFF9"/>
<path d="M33.7839 74.3243H40.5407V81.0811H33.7839V74.3243Z" fill="#B0FFF9"/>
<path d="M40.5407 74.3243H47.2975V81.0811H40.5407V74.3243Z" fill="#B0FFF9"/>
<path d="M47.2975 74.3243H54.0542V81.0811H47.2975V74.3243Z" fill="#B0FFF9"/>
<path d="M67.5677 74.3243H74.3245V81.0811H67.5677V74.3243Z" fill="#B0FFF9"/>
<path d="M74.3245 74.3243H81.0812V81.0811H74.3245V74.3243Z" fill="#B0FFF9"/>
<path d="M81.0812 74.3243H87.838V81.0811H81.0812V74.3243Z" fill="#B0FFF9"/>
<path d="M94.5948 74.3243H101.352V81.0811H94.5948V74.3243Z" fill="#B0FFF9"/>
<path d="M114.865 74.3243H121.622V81.0811H114.865V74.3243Z" fill="#B0FFF9"/>
<path d="M128.379 74.3243H135.135V81.0811H128.379V74.3243Z" fill="#B0FFF9"/>
<path d="M148.649 74.3243H155.406V81.0811H148.649V74.3243Z" fill="#B0FFF9"/>
<path d="M162.162 74.3243H168.919V81.0811H162.162V74.3243Z" fill="#B0FFF9"/>
<path d="M168.919 74.3243H175.676V81.0811H168.919V74.3243Z" fill="#B0FFF9"/>
<path d="M182.433 74.3243H189.189V81.0811H182.433V74.3243Z" fill="#B0FFF9"/>
<path d="M195.946 74.3243H202.703V81.0811H195.946V74.3243Z" fill="#B0FFF9"/>
<path d="M202.703 74.3243H209.46V81.0811H202.703V74.3243Z" fill="#B0FFF9"/>
<path d="M209.46 74.3243H216.216V81.0811H209.46V74.3243Z" fill="#B0FFF9"/>
<path d="M13.5137 81.0811H20.2704V87.8378H13.5137V81.0811Z" fill="#B0FFF9"/>
<path d="M33.7839 81.0811H40.5407V87.8378H33.7839V81.0811Z" fill="#B0FFF9"/>
<path d="M40.5407 81.0811H47.2975V87.8378H40.5407V81.0811Z" fill="#B0FFF9"/>
<path d="M54.0542 81.0811H60.811V87.8378H54.0542V81.0811Z" fill="#B0FFF9"/>
<path d="M67.5677 81.0811H74.3245V87.8378H67.5677V81.0811Z" fill="#B0FFF9"/>
<path d="M81.0812 81.0811H87.838V87.8378H81.0812V81.0811Z" fill="#B0FFF9"/>
<path d="M87.838 81.0811H94.5948V87.8378H87.838V81.0811Z" fill="#B0FFF9"/>
<path d="M94.5948 81.0811H101.352V87.8378H94.5948V81.0811Z" fill="#B0FFF9"/>
<path d="M101.352 81.0811H108.108V87.8378H101.352V81.0811Z" fill="#B0FFF9"/>
<path d="M141.892 81.0811H148.649V87.8378H141.892V81.0811Z" fill="#B0FFF9"/>
<path d="M148.649 81.0811H155.406V87.8378H148.649V81.0811Z" fill="#B0FFF9"/>
<path d="M155.406 81.0811H162.162V87.8378H155.406V81.0811Z" fill="#B0FFF9"/>
<path d="M168.919 81.0811H175.676V87.8378H168.919V81.0811Z" fill="#B0FFF9"/>
<path d="M182.433 81.0811H189.189V87.8378H182.433V81.0811Z" fill="#B0FFF9"/>
<path d="M189.189 81.0811H195.946V87.8378H189.189V81.0811Z" fill="#B0FFF9"/>
<path d="M195.946 81.0811H202.703V87.8378H195.946V81.0811Z" fill="#B0FFF9"/>
<path d="M209.46 81.0811H216.216V87.8378H209.46V81.0811Z" fill="#B0FFF9"/>
<path d="M222.973 81.0811H229.73V87.8378H222.973V81.0811Z" fill="#B0FFF9"/>
<path d="M229.73 81.0811H236.487V87.8378H229.73V81.0811Z" fill="#B0FFF9"/>
<path d="M27.0272 87.8378H33.7839V94.5946H27.0272V87.8378Z" fill="#B0FFF9"/>
<path d="M33.7839 87.8378H40.5407V94.5946H33.7839V87.8378Z" fill="#B0FFF9"/>
<path d="M40.5407 87.8378H47.2975V94.5946H40.5407V87.8378Z" fill="#B0FFF9"/>
<path d="M74.3245 87.8378H81.0812V94.5946H74.3245V87.8378Z" fill="#B0FFF9"/>
<path d="M94.5948 87.8378H101.352V94.5946H94.5948V87.8378Z" fill="#B0FFF9"/>
<path d="M114.865 87.8378H121.622V94.5946H114.865V87.8378Z" fill="#B0FFF9"/>
<path d="M128.379 87.8378H135.135V94.5946H128.379V87.8378Z" fill="#B0FFF9"/>
<path d="M135.135 87.8378H141.892V94.5946H135.135V87.8378Z" fill="#B0FFF9"/>
<path d="M141.892 87.8378H148.649V94.5946H141.892V87.8378Z" fill="#B0FFF9"/>
<path d="M148.649 87.8378H155.406V94.5946H148.649V87.8378Z" fill="#B0FFF9"/>
<path d="M168.919 87.8378H175.676V94.5946H168.919V87.8378Z" fill="#B0FFF9"/>
<path d="M182.433 87.8378H189.189V94.5946H182.433V87.8378Z" fill="#B0FFF9"/>
<path d="M195.946 87.8378H202.703V94.5946H195.946V87.8378Z" fill="#B0FFF9"/>
<path d="M202.703 87.8378H209.46V94.5946H202.703V87.8378Z" fill="#B0FFF9"/>
<path d="M216.216 87.8378H222.973V94.5946H216.216V87.8378Z" fill="#B0FFF9"/>
<path d="M13.5137 94.5946H20.2704V101.351H13.5137V94.5946Z" fill="#B0FFF9"/>
<path d="M40.5407 94.5946H47.2975V101.351H40.5407V94.5946Z" fill="#B0FFF9"/>
<path d="M54.0542 94.5946H60.811V101.351H54.0542V94.5946Z" fill="#B0FFF9"/>
<path d="M67.5677 94.5946H74.3245V101.351H67.5677V94.5946Z" fill="#B0FFF9"/>
<path d="M74.3245 94.5946H81.0812V101.351H74.3245V94.5946Z" fill="#B0FFF9"/>
<path d="M155.406 94.5946H162.162V101.351H155.406V94.5946Z" fill="#B0FFF9"/>
<path d="M162.162 94.5946H168.919V101.351H162.162V94.5946Z" fill="#B0FFF9"/>
<path d="M168.919 94.5946H175.676V101.351H168.919V94.5946Z" fill="#B0FFF9"/>
<path d="M189.189 94.5946H195.946V101.351H189.189V94.5946Z" fill="#B0FFF9"/>
<path d="M202.703 94.5946H209.46V101.351H202.703V94.5946Z" fill="#B0FFF9"/>
<path d="M209.46 94.5946H216.216V101.351H209.46V94.5946Z" fill="#B0FFF9"/>
<path d="M229.73 94.5946H236.487V101.351H229.73V94.5946Z" fill="#B0FFF9"/>
<path d="M13.5137 101.351H20.2704V108.108H13.5137V101.351Z" fill="#B0FFF9"/>
<path d="M20.2704 101.351H27.0272V108.108H20.2704V101.351Z" fill="#B0FFF9"/>
<path d="M27.0272 101.351H33.7839V108.108H27.0272V101.351Z" fill="#B0FFF9"/>
<path d="M33.7839 101.351H40.5407V108.108H33.7839V101.351Z" fill="#B0FFF9"/>
<path d="M47.2975 101.351H54.0542V108.108H47.2975V101.351Z" fill="#B0FFF9"/>
<path d="M74.3245 101.351H81.0812V108.108H74.3245V101.351Z" fill="#B0FFF9"/>
<path d="M87.838 101.351H94.5948V108.108H87.838V101.351Z" fill="#B0FFF9"/>
<path d="M155.406 101.351H162.162V108.108H155.406V101.351Z" fill="#B0FFF9"/>
<path d="M162.162 101.351H168.919V108.108H162.162V101.351Z" fill="#B0FFF9"/>
<path d="M168.919 101.351H175.676V108.108H168.919V101.351Z" fill="#B0FFF9"/>
<path d="M182.433 101.351H189.189V108.108H182.433V101.351Z" fill="#B0FFF9"/>
<path d="M216.216 101.351H222.973V108.108H216.216V101.351Z" fill="#B0FFF9"/>
<path d="M222.973 101.351H229.73V108.108H222.973V101.351Z" fill="#B0FFF9"/>
<path d="M13.5137 108.108H20.2704V114.865H13.5137V108.108Z" fill="#B0FFF9"/>
<path d="M33.7839 108.108H40.5407V114.865H33.7839V108.108Z" fill="#B0FFF9"/>
<path d="M40.5407 108.108H47.2975V114.865H40.5407V108.108Z" fill="#B0FFF9"/>
<path d="M47.2975 108.108H54.0542V114.865H47.2975V108.108Z" fill="#B0FFF9"/>
<path d="M54.0542 108.108H60.811V114.865H54.0542V108.108Z" fill="#B0FFF9"/>
<path d="M60.811 108.108H67.5677V114.865H60.811V108.108Z" fill="#B0FFF9"/>
<path d="M81.0812 108.108H87.838V114.865H81.0812V108.108Z" fill="#B0FFF9"/>
<path d="M87.838 108.108H94.5948V114.865H87.838V108.108Z" fill="#B0FFF9"/>
<path d="M189.189 108.108H195.946V114.865H189.189V108.108Z" fill="#B0FFF9"/>
<path d="M202.703 108.108H209.46V114.865H202.703V108.108Z" fill="#B0FFF9"/>
<path d="M216.216 108.108H222.973V114.865H216.216V108.108Z" fill="#B0FFF9"/>
<path d="M13.5137 114.865H20.2704V121.622H13.5137V114.865Z" fill="#B0FFF9"/>
<path d="M40.5407 114.865H47.2975V121.622H40.5407V114.865Z" fill="#B0FFF9"/>
<path d="M74.3245 114.865H81.0812V121.622H74.3245V114.865Z" fill="#B0FFF9"/>
<path d="M87.838 114.865H94.5948V121.622H87.838V114.865Z" fill="#B0FFF9"/>
<path d="M168.919 114.865H175.676V121.622H168.919V114.865Z" fill="#B0FFF9"/>
<path d="M182.433 114.865H189.189V121.622H182.433V114.865Z" fill="#B0FFF9"/>
<path d="M202.703 114.865H209.46V121.622H202.703V114.865Z" fill="#B0FFF9"/>
<path d="M216.216 114.865H222.973V121.622H216.216V114.865Z" fill="#B0FFF9"/>
<path d="M222.973 114.865H229.73V121.622H222.973V114.865Z" fill="#B0FFF9"/>
<path d="M20.2704 121.622H27.0272V128.378H20.2704V121.622Z" fill="#B0FFF9"/>
<path d="M27.0272 121.622H33.7839V128.378H27.0272V121.622Z" fill="#B0FFF9"/>
<path d="M33.7839 121.622H40.5407V128.378H33.7839V121.622Z" fill="#B0FFF9"/>
<path d="M40.5407 121.622H47.2975V128.378H40.5407V121.622Z" fill="#B0FFF9"/>
<path d="M54.0542 121.622H60.811V128.378H54.0542V121.622Z" fill="#B0FFF9"/>
<path d="M74.3245 121.622H81.0812V128.378H74.3245V121.622Z" fill="#B0FFF9"/>
<path d="M81.0812 121.622H87.838V128.378H81.0812V121.622Z" fill="#B0FFF9"/>
<path d="M87.838 121.622H94.5948V128.378H87.838V121.622Z" fill="#B0FFF9"/>
<path d="M168.919 121.622H175.676V128.378H168.919V121.622Z" fill="#B0FFF9"/>
<path d="M182.433 121.622H189.189V128.378H182.433V121.622Z" fill="#B0FFF9"/>
<path d="M189.189 121.622H195.946V128.378H189.189V121.622Z" fill="#B0FFF9"/>
<path d="M195.946 121.622H202.703V128.378H195.946V121.622Z" fill="#B0FFF9"/>
<path d="M202.703 121.622H209.46V128.378H202.703V121.622Z" fill="#B0FFF9"/>
<path d="M209.46 121.622H216.216V128.378H209.46V121.622Z" fill="#B0FFF9"/>
<path d="M216.216 121.622H222.973V128.378H216.216V121.622Z" fill="#B0FFF9"/>
<path d="M13.5137 128.378H20.2704V135.135H13.5137V128.378Z" fill="#B0FFF9"/>
<path d="M20.2704 128.378H27.0272V135.135H20.2704V128.378Z" fill="#B0FFF9"/>
<path d="M27.0272 128.378H33.7839V135.135H27.0272V128.378Z" fill="#B0FFF9"/>
<path d="M33.7839 128.378H40.5407V135.135H33.7839V128.378Z" fill="#B0FFF9"/>
<path d="M40.5407 128.378H47.2975V135.135H40.5407V128.378Z" fill="#B0FFF9"/>
<path d="M60.811 128.378H67.5677V135.135H60.811V128.378Z" fill="#B0FFF9"/>
<path d="M67.5677 128.378H74.3245V135.135H67.5677V128.378Z" fill="#B0FFF9"/>
<path d="M81.0812 128.378H87.838V135.135H81.0812V128.378Z" fill="#B0FFF9"/>
<path d="M155.406 128.378H162.162V135.135H155.406V128.378Z" fill="#B0FFF9"/>
<path d="M162.162 128.378H168.919V135.135H162.162V128.378Z" fill="#B0FFF9"/>
<path d="M175.676 128.378H182.433V135.135H175.676V128.378Z" fill="#B0FFF9"/>
<path d="M189.189 128.378H195.946V135.135H189.189V128.378Z" fill="#B0FFF9"/>
<path d="M202.703 128.378H209.46V135.135H202.703V128.378Z" fill="#B0FFF9"/>
<path d="M209.46 128.378H216.216V135.135H209.46V128.378Z" fill="#B0FFF9"/>
<path d="M222.973 128.378H229.73V135.135H222.973V128.378Z" fill="#B0FFF9"/>
<path d="M229.73 128.378H236.487V135.135H229.73V128.378Z" fill="#B0FFF9"/>
<path d="M33.7839 135.135H40.5407V141.892H33.7839V135.135Z" fill="#B0FFF9"/>
<path d="M40.5407 135.135H47.2975V141.892H40.5407V135.135Z" fill="#B0FFF9"/>
<path d="M54.0542 135.135H60.811V141.892H54.0542V135.135Z" fill="#B0FFF9"/>
<path d="M60.811 135.135H67.5677V141.892H60.811V135.135Z" fill="#B0FFF9"/>
<path d="M67.5677 135.135H74.3245V141.892H67.5677V135.135Z" fill="#B0FFF9"/>
<path d="M74.3245 135.135H81.0812V141.892H74.3245V135.135Z" fill="#B0FFF9"/>
<path d="M81.0812 135.135H87.838V141.892H81.0812V135.135Z" fill="#B0FFF9"/>
<path d="M155.406 135.135H162.162V141.892H155.406V135.135Z" fill="#B0FFF9"/>
<path d="M162.162 135.135H168.919V141.892H162.162V135.135Z" fill="#B0FFF9"/>
<path d="M168.919 135.135H175.676V141.892H168.919V135.135Z" fill="#B0FFF9"/>
<path d="M209.46 135.135H216.216V141.892H209.46V135.135Z" fill="#B0FFF9"/>
<path d="M216.216 135.135H222.973V141.892H216.216V135.135Z" fill="#B0FFF9"/>
<path d="M229.73 135.135H236.487V141.892H229.73V135.135Z" fill="#B0FFF9"/>
<path d="M20.2704 141.892H27.0272V148.649H20.2704V141.892Z" fill="#B0FFF9"/>
<path d="M27.0272 141.892H33.7839V148.649H27.0272V141.892Z" fill="#B0FFF9"/>
<path d="M40.5407 141.892H47.2975V148.649H40.5407V141.892Z" fill="#B0FFF9"/>
<path d="M47.2975 141.892H54.0542V148.649H47.2975V141.892Z" fill="#B0FFF9"/>
<path d="M67.5677 141.892H74.3245V148.649H67.5677V141.892Z" fill="#B0FFF9"/>
<path d="M81.0812 141.892H87.838V148.649H81.0812V141.892Z" fill="#B0FFF9"/>
<path d="M162.162 141.892H168.919V148.649H162.162V141.892Z" fill="#B0FFF9"/>
<path d="M168.919 141.892H175.676V148.649H168.919V141.892Z" fill="#B0FFF9"/>
<path d="M175.676 141.892H182.433V148.649H175.676V141.892Z" fill="#B0FFF9"/>
<path d="M182.433 141.892H189.189V148.649H182.433V141.892Z" fill="#B0FFF9"/>
<path d="M195.946 141.892H202.703V148.649H195.946V141.892Z" fill="#B0FFF9"/>
<path d="M202.703 141.892H209.46V148.649H202.703V141.892Z" fill="#B0FFF9"/>
<path d="M209.46 141.892H216.216V148.649H209.46V141.892Z" fill="#B0FFF9"/>
<path d="M216.216 141.892H222.973V148.649H216.216V141.892Z" fill="#B0FFF9"/>
<path d="M222.973 141.892H229.73V148.649H222.973V141.892Z" fill="#B0FFF9"/>
<path d="M229.73 141.892H236.487V148.649H229.73V141.892Z" fill="#B0FFF9"/>
<path d="M13.5137 148.649H20.2704V155.405H13.5137V148.649Z" fill="#B0FFF9"/>
<path d="M40.5407 148.649H47.2975V155.405H40.5407V148.649Z" fill="#B0FFF9"/>
<path d="M47.2975 148.649H54.0542V155.405H47.2975V148.649Z" fill="#B0FFF9"/>
<path d="M54.0542 148.649H60.811V155.405H54.0542V148.649Z" fill="#B0FFF9"/>
<path d="M74.3245 148.649H81.0812V155.405H74.3245V148.649Z" fill="#B0FFF9"/>
<path d="M189.189 148.649H195.946V155.405H189.189V148.649Z" fill="#B0FFF9"/>
<path d="M195.946 148.649H202.703V155.405H195.946V148.649Z" fill="#B0FFF9"/>
<path d="M209.46 148.649H216.216V155.405H209.46V148.649Z" fill="#B0FFF9"/>
<path d="M222.973 148.649H229.73V155.405H222.973V148.649Z" fill="#B0FFF9"/>
<path d="M13.5137 155.405H20.2704V162.162H13.5137V155.405Z" fill="#B0FFF9"/>
<path d="M20.2704 155.405H27.0272V162.162H20.2704V155.405Z" fill="#B0FFF9"/>
<path d="M27.0272 155.405H33.7839V162.162H27.0272V155.405Z" fill="#B0FFF9"/>
<path d="M67.5677 155.405H74.3245V162.162H67.5677V155.405Z" fill="#B0FFF9"/>
<path d="M87.838 155.405H94.5948V162.162H87.838V155.405Z" fill="#B0FFF9"/>
<path d="M108.108 155.405H114.865V162.162H108.108V155.405Z" fill="#B0FFF9"/>
<path d="M121.622 155.405H128.379V162.162H121.622V155.405Z" fill="#B0FFF9"/>
<path d="M162.162 155.405H168.919V162.162H162.162V155.405Z" fill="#B0FFF9"/>
<path d="M175.676 155.405H182.433V162.162H175.676V155.405Z" fill="#B0FFF9"/>
<path d="M189.189 155.405H195.946V162.162H189.189V155.405Z" fill="#B0FFF9"/>
<path d="M195.946 155.405H202.703V162.162H195.946V155.405Z" fill="#B0FFF9"/>
<path d="M202.703 155.405H209.46V162.162H202.703V155.405Z" fill="#B0FFF9"/>
<path d="M209.46 155.405H216.216V162.162H209.46V155.405Z" fill="#B0FFF9"/>
<path d="M13.5137 162.162H20.2704V168.919H13.5137V162.162Z" fill="#B0FFF9"/>
<path d="M27.0272 162.162H33.7839V168.919H27.0272V162.162Z" fill="#B0FFF9"/>
<path d="M33.7839 162.162H40.5407V168.919H33.7839V162.162Z" fill="#B0FFF9"/>
<path d="M47.2975 162.162H54.0542V168.919H47.2975V162.162Z" fill="#B0FFF9"/>
<path d="M54.0542 162.162H60.811V168.919H54.0542V162.162Z" fill="#B0FFF9"/>
<path d="M67.5677 162.162H74.3245V168.919H67.5677V162.162Z" fill="#B0FFF9"/>
<path d="M81.0812 162.162H87.838V168.919H81.0812V162.162Z" fill="#B0FFF9"/>
<path d="M108.108 162.162H114.865V168.919H108.108V162.162Z" fill="#B0FFF9"/>
<path d="M135.135 162.162H141.892V168.919H135.135V162.162Z" fill="#B0FFF9"/>
<path d="M141.892 162.162H148.649V168.919H141.892V162.162Z" fill="#B0FFF9"/>
<path d="M155.406 162.162H162.162V168.919H155.406V162.162Z" fill="#B0FFF9"/>
<path d="M168.919 162.162H175.676V168.919H168.919V162.162Z" fill="#B0FFF9"/>
<path d="M189.189 162.162H195.946V168.919H189.189V162.162Z" fill="#B0FFF9"/>
<path d="M195.946 162.162H202.703V168.919H195.946V162.162Z" fill="#B0FFF9"/>
<path d="M229.73 162.162H236.487V168.919H229.73V162.162Z" fill="#B0FFF9"/>
<path d="M13.5137 168.919H20.2704V175.676H13.5137V168.919Z" fill="#B0FFF9"/>
<path d="M33.7839 168.919H40.5407V175.676H33.7839V168.919Z" fill="#B0FFF9"/>
<path d="M40.5407 168.919H47.2975V175.676H40.5407V168.919Z" fill="#B0FFF9"/>
<path d="M60.811 168.919H67.5677V175.676H60.811V168.919Z" fill="#B0FFF9"/>
<path d="M74.3245 168.919H81.0812V175.676H74.3245V168.919Z" fill="#B0FFF9"/>
<path d="M87.838 168.919H94.5948V175.676H87.838V168.919Z" fill="#B0FFF9"/>
<path d="M114.865 168.919H121.622V175.676H114.865V168.919Z" fill="#B0FFF9"/>
<path d="M128.379 168.919H135.135V175.676H128.379V168.919Z" fill="#B0FFF9"/>
<path d="M168.919 168.919H175.676V175.676H168.919V168.919Z" fill="#B0FFF9"/>
<path d="M175.676 168.919H182.433V175.676H175.676V168.919Z" fill="#B0FFF9"/>
<path d="M195.946 168.919H202.703V175.676H195.946V168.919Z" fill="#B0FFF9"/>
<path d="M202.703 168.919H209.46V175.676H202.703V168.919Z" fill="#B0FFF9"/>
<path d="M216.216 168.919H222.973V175.676H216.216V168.919Z" fill="#B0FFF9"/>
<path d="M13.5137 175.676H20.2704V182.432H13.5137V175.676Z" fill="#B0FFF9"/>
<path d="M20.2704 175.676H27.0272V182.432H20.2704V175.676Z" fill="#B0FFF9"/>
<path d="M27.0272 175.676H33.7839V182.432H27.0272V175.676Z" fill="#B0FFF9"/>
<path d="M47.2975 175.676H54.0542V182.432H47.2975V175.676Z" fill="#B0FFF9"/>
<path d="M54.0542 175.676H60.811V182.432H54.0542V175.676Z" fill="#B0FFF9"/>
<path d="M60.811 175.676H67.5677V182.432H60.811V175.676Z" fill="#B0FFF9"/>
<path d="M67.5677 175.676H74.3245V182.432H67.5677V175.676Z" fill="#B0FFF9"/>
<path d="M74.3245 175.676H81.0812V182.432H74.3245V175.676Z" fill="#B0FFF9"/>
<path d="M81.0812 175.676H87.838V182.432H81.0812V175.676Z" fill="#B0FFF9"/>
<path d="M87.838 175.676H94.5948V182.432H87.838V175.676Z" fill="#B0FFF9"/>
<path d="M94.5948 175.676H101.352V182.432H94.5948V175.676Z" fill="#B0FFF9"/>
<path d="M101.352 175.676H108.108V182.432H101.352V175.676Z" fill="#B0FFF9"/>
<path d="M114.865 175.676H121.622V182.432H114.865V175.676Z" fill="#B0FFF9"/>
<path d="M141.892 175.676H148.649V182.432H141.892V175.676Z" fill="#B0FFF9"/>
<path d="M168.919 175.676H175.676V182.432H168.919V175.676Z" fill="#B0FFF9"/>
<path d="M175.676 175.676H182.433V182.432H175.676V175.676Z" fill="#B0FFF9"/>
<path d="M182.433 175.676H189.189V182.432H182.433V175.676Z" fill="#B0FFF9"/>
<path d="M189.189 175.676H195.946V182.432H189.189V175.676Z" fill="#B0FFF9"/>
<path d="M195.946 175.676H202.703V182.432H195.946V175.676Z" fill="#B0FFF9"/>
<path d="M202.703 175.676H209.46V182.432H202.703V175.676Z" fill="#B0FFF9"/>
<path d="M229.73 175.676H236.487V182.432H229.73V175.676Z" fill="#B0FFF9"/>
<path d="M67.5677 182.432H74.3245V189.189H67.5677V182.432Z" fill="#B0FFF9"/>
<path d="M74.3245 182.432H81.0812V189.189H74.3245V182.432Z" fill="#B0FFF9"/>
<path d="M81.0812 182.432H87.838V189.189H81.0812V182.432Z" fill="#B0FFF9"/>
<path d="M87.838 182.432H94.5948V189.189H87.838V182.432Z" fill="#B0FFF9"/>
<path d="M108.108 182.432H114.865V189.189H108.108V182.432Z" fill="#B0FFF9"/>
<path d="M141.892 182.432H148.649V189.189H141.892V182.432Z" fill="#B0FFF9"/>
<path d="M155.406 182.432H162.162V189.189H155.406V182.432Z" fill="#B0FFF9"/>
<path d="M162.162 182.432H168.919V189.189H162.162V182.432Z" fill="#B0FFF9"/>
<path d="M175.676 182.432H182.433V189.189H175.676V182.432Z" fill="#B0FFF9"/>
<path d="M202.703 182.432H209.46V189.189H202.703V182.432Z" fill="#B0FFF9"/>
<path d="M13.5137 189.189H20.2704V195.946H13.5137V189.189Z" fill="#B0FFF9"/>
<path d="M20.2704 189.189H27.0272V195.946H20.2704V189.189Z" fill="#B0FFF9"/>
<path d="M27.0272 189.189H33.7839V195.946H27.0272V189.189Z" fill="#B0FFF9"/>
<path d="M33.7839 189.189H40.5407V195.946H33.7839V189.189Z" fill="#B0FFF9"/>
<path d="M40.5407 189.189H47.2975V195.946H40.5407V189.189Z" fill="#B0FFF9"/>
<path d="M47.2975 189.189H54.0542V195.946H47.2975V189.189Z" fill="#B0FFF9"/>
<path d="M54.0542 189.189H60.811V195.946H54.0542V189.189Z" fill="#B0FFF9"/>
<path d="M67.5677 189.189H74.3245V195.946H67.5677V189.189Z" fill="#B0FFF9"/>
<path d="M81.0812 189.189H87.838V195.946H81.0812V189.189Z" fill="#B0FFF9"/>
<path d="M108.108 189.189H114.865V195.946H108.108V189.189Z" fill="#B0FFF9"/>
<path d="M114.865 189.189H121.622V195.946H114.865V189.189Z" fill="#B0FFF9"/>
<path d="M128.379 189.189H135.135V195.946H128.379V189.189Z" fill="#B0FFF9"/>
<path d="M135.135 189.189H141.892V195.946H135.135V189.189Z" fill="#B0FFF9"/>
<path d="M141.892 189.189H148.649V195.946H141.892V189.189Z" fill="#B0FFF9"/>
<path d="M168.919 189.189H175.676V195.946H168.919V189.189Z" fill="#B0FFF9"/>
<path d="M175.676 189.189H182.433V195.946H175.676V189.189Z" fill="#B0FFF9"/>
<path d="M189.189 189.189H195.946V195.946H189.189V189.189Z" fill="#B0FFF9"/>
<path d="M202.703 189.189H209.46V195.946H202.703V189.189Z" fill="#B0FFF9"/>
<path d="M209.46 189.189H216.216V195.946H209.46V189.189Z" fill="#B0FFF9"/>
<path d="M216.216 189.189H222.973V195.946H216.216V189.189Z" fill="#B0FFF9"/>
<path d="M13.5137 195.946H20.2704V202.703H13.5137V195.946Z" fill="#B0FFF9"/>
<path d="M54.0542 195.946H60.811V202.703H54.0542V195.946Z" fill="#B0FFF9"/>
<path d="M74.3245 195.946H81.0812V202.703H74.3245V195.946Z" fill="#B0FFF9"/>
<path d="M94.5948 195.946H101.352V202.703H94.5948V195.946Z" fill="#B0FFF9"/>
<path d="M135.135 195.946H141.892V202.703H135.135V195.946Z" fill="#B0FFF9"/>
<path d="M155.406 195.946H162.162V202.703H155.406V195.946Z" fill="#B0FFF9"/>
<path d="M162.162 195.946H168.919V202.703H162.162V195.946Z" fill="#B0FFF9"/>
<path d="M168.919 195.946H175.676V202.703H168.919V195.946Z" fill="#B0FFF9"/>
<path d="M175.676 195.946H182.433V202.703H175.676V195.946Z" fill="#B0FFF9"/>
<path d="M202.703 195.946H209.46V202.703H202.703V195.946Z" fill="#B0FFF9"/>
<path d="M209.46 195.946H216.216V202.703H209.46V195.946Z" fill="#B0FFF9"/>
<path d="M216.216 195.946H222.973V202.703H216.216V195.946Z" fill="#B0FFF9"/>
<path d="M222.973 195.946H229.73V202.703H222.973V195.946Z" fill="#B0FFF9"/>
<path d="M13.5137 202.703H20.2704V209.459H13.5137V202.703Z" fill="#B0FFF9"/>
<path d="M27.0272 202.703H33.7839V209.459H27.0272V202.703Z" fill="#B0FFF9"/>
<path d="M33.7839 202.703H40.5407V209.459H33.7839V202.703Z" fill="#B0FFF9"/>
<path d="M40.5407 202.703H47.2975V209.459H40.5407V202.703Z" fill="#B0FFF9"/>
<path d="M54.0542 202.703H60.811V209.459H54.0542V202.703Z" fill="#B0FFF9"/>
<path d="M67.5677 202.703H74.3245V209.459H67.5677V202.703Z" fill="#B0FFF9"/>
<path d="M81.0812 202.703H87.838V209.459H81.0812V202.703Z" fill="#B0FFF9"/>
<path d="M87.838 202.703H94.5948V209.459H87.838V202.703Z" fill="#B0FFF9"/>
<path d="M101.352 202.703H108.108V209.459H101.352V202.703Z" fill="#B0FFF9"/>
<path d="M108.108 202.703H114.865V209.459H108.108V202.703Z" fill="#B0FFF9"/>
<path d="M121.622 202.703H128.379V209.459H121.622V202.703Z" fill="#B0FFF9"/>
<path d="M135.135 202.703H141.892V209.459H135.135V202.703Z" fill="#B0FFF9"/>
<path d="M148.649 202.703H155.406V209.459H148.649V202.703Z" fill="#B0FFF9"/>
<path d="M155.406 202.703H162.162V209.459H155.406V202.703Z" fill="#B0FFF9"/>
<path d="M162.162 202.703H168.919V209.459H162.162V202.703Z" fill="#B0FFF9"/>
<path d="M168.919 202.703H175.676V209.459H168.919V202.703Z" fill="#B0FFF9"/>
<path d="M175.676 202.703H182.433V209.459H175.676V202.703Z" fill="#B0FFF9"/>
<path d="M182.433 202.703H189.189V209.459H182.433V202.703Z" fill="#B0FFF9"/>
<path d="M189.189 202.703H195.946V209.459H189.189V202.703Z" fill="#B0FFF9"/>
<path d="M195.946 202.703H202.703V209.459H195.946V202.703Z" fill="#B0FFF9"/>
<path d="M202.703 202.703H209.46V209.459H202.703V202.703Z" fill="#B0FFF9"/>
<path d="M209.46 202.703H216.216V209.459H209.46V202.703Z" fill="#B0FFF9"/>
<path d="M222.973 202.703H229.73V209.459H222.973V202.703Z" fill="#B0FFF9"/>
<path d="M13.5137 209.459H20.2704V216.216H13.5137V209.459Z" fill="#B0FFF9"/>
<path d="M27.0272 209.459H33.7839V216.216H27.0272V209.459Z" fill="#B0FFF9"/>
<path d="M33.7839 209.459H40.5407V216.216H33.7839V209.459Z" fill="#B0FFF9"/>
<path d="M40.5407 209.459H47.2975V216.216H40.5407V209.459Z" fill="#B0FFF9"/>
<path d="M54.0542 209.459H60.811V216.216H54.0542V209.459Z" fill="#B0FFF9"/>
<path d="M67.5677 209.459H74.3245V216.216H67.5677V209.459Z" fill="#B0FFF9"/>
<path d="M74.3245 209.459H81.0812V216.216H74.3245V209.459Z" fill="#B0FFF9"/>
<path d="M81.0812 209.459H87.838V216.216H81.0812V209.459Z" fill="#B0FFF9"/>
<path d="M94.5948 209.459H101.352V216.216H94.5948V209.459Z" fill="#B0FFF9"/>
<path d="M108.108 209.459H114.865V216.216H108.108V209.459Z" fill="#B0FFF9"/>
<path d="M121.622 209.459H128.379V216.216H121.622V209.459Z" fill="#B0FFF9"/>
<path d="M128.379 209.459H135.135V216.216H128.379V209.459Z" fill="#B0FFF9"/>
<path d="M148.649 209.459H155.406V216.216H148.649V209.459Z" fill="#B0FFF9"/>
<path d="M155.406 209.459H162.162V216.216H155.406V209.459Z" fill="#B0FFF9"/>
<path d="M162.162 209.459H168.919V216.216H162.162V209.459Z" fill="#B0FFF9"/>
<path d="M182.433 209.459H189.189V216.216H182.433V209.459Z" fill="#B0FFF9"/>
<path d="M195.946 209.459H202.703V216.216H195.946V209.459Z" fill="#B0FFF9"/>
<path d="M222.973 209.459H229.73V216.216H222.973V209.459Z" fill="#B0FFF9"/>
<path d="M13.5137 216.216H20.2704V222.973H13.5137V216.216Z" fill="#B0FFF9"/>
<path d="M27.0272 216.216H33.7839V222.973H27.0272V216.216Z" fill="#B0FFF9"/>
<path d="M33.7839 216.216H40.5407V222.973H33.7839V216.216Z" fill="#B0FFF9"/>
<path d="M40.5407 216.216H47.2975V222.973H40.5407V216.216Z" fill="#B0FFF9"/>
<path d="M54.0542 216.216H60.811V222.973H54.0542V216.216Z" fill="#B0FFF9"/>
<path d="M81.0812 216.216H87.838V222.973H81.0812V216.216Z" fill="#B0FFF9"/>
<path d="M87.838 216.216H94.5948V222.973H87.838V216.216Z" fill="#B0FFF9"/>
<path d="M94.5948 216.216H101.352V222.973H94.5948V216.216Z" fill="#B0FFF9"/>
<path d="M108.108 216.216H114.865V222.973H108.108V216.216Z" fill="#B0FFF9"/>
<path d="M121.622 216.216H128.379V222.973H121.622V216.216Z" fill="#B0FFF9"/>
<path d="M128.379 216.216H135.135V222.973H128.379V216.216Z" fill="#B0FFF9"/>
<path d="M148.649 216.216H155.406V222.973H148.649V216.216Z" fill="#B0FFF9"/>
<path d="M175.676 216.216H182.433V222.973H175.676V216.216Z" fill="#B0FFF9"/>
<path d="M202.703 216.216H209.46V222.973H202.703V216.216Z" fill="#B0FFF9"/>
<path d="M209.46 216.216H216.216V222.973H209.46V216.216Z" fill="#B0FFF9"/>
<path d="M222.973 216.216H229.73V222.973H222.973V216.216Z" fill="#B0FFF9"/>
<path d="M229.73 216.216H236.487V222.973H229.73V216.216Z" fill="#B0FFF9"/>
<path d="M13.5137 222.973H20.2704V229.73H13.5137V222.973Z" fill="#B0FFF9"/>
<path d="M54.0542 222.973H60.811V229.73H54.0542V222.973Z" fill="#B0FFF9"/>
<path d="M74.3245 222.973H81.0812V229.73H74.3245V222.973Z" fill="#B0FFF9"/>
<path d="M87.838 222.973H94.5948V229.73H87.838V222.973Z" fill="#B0FFF9"/>
<path d="M94.5948 222.973H101.352V229.73H94.5948V222.973Z" fill="#B0FFF9"/>
<path d="M101.352 222.973H108.108V229.73H101.352V222.973Z" fill="#B0FFF9"/>
<path d="M108.108 222.973H114.865V229.73H108.108V222.973Z" fill="#B0FFF9"/>
<path d="M114.865 222.973H121.622V229.73H114.865V222.973Z" fill="#B0FFF9"/>
<path d="M128.379 222.973H135.135V229.73H128.379V222.973Z" fill="#B0FFF9"/>
<path d="M135.135 222.973H141.892V229.73H135.135V222.973Z" fill="#B0FFF9"/>
<path d="M141.892 222.973H148.649V229.73H141.892V222.973Z" fill="#B0FFF9"/>
<path d="M148.649 222.973H155.406V229.73H148.649V222.973Z" fill="#B0FFF9"/>
<path d="M162.162 222.973H168.919V229.73H162.162V222.973Z" fill="#B0FFF9"/>
<path d="M209.46 222.973H216.216V229.73H209.46V222.973Z" fill="#B0FFF9"/>
<path d="M222.973 222.973H229.73V229.73H222.973V222.973Z" fill="#B0FFF9"/>
<path d="M229.73 222.973H236.487V229.73H229.73V222.973Z" fill="#B0FFF9"/>
<path d="M13.5137 229.73H20.2704V236.486H13.5137V229.73Z" fill="#B0FFF9"/>
<path d="M20.2704 229.73H27.0272V236.486H20.2704V229.73Z" fill="#B0FFF9"/>
<path d="M27.0272 229.73H33.7839V236.486H27.0272V229.73Z" fill="#B0FFF9"/>
<path d="M33.7839 229.73H40.5407V236.486H33.7839V229.73Z" fill="#B0FFF9"/>
<path d="M40.5407 229.73H47.2975V236.486H40.5407V229.73Z" fill="#B0FFF9"/>
<path d="M47.2975 229.73H54.0542V236.486H47.2975V229.73Z" fill="#B0FFF9"/>
<path d="M54.0542 229.73H60.811V236.486H54.0542V229.73Z" fill="#B0FFF9"/>
<path d="M74.3245 229.73H81.0812V236.486H74.3245V229.73Z" fill="#B0FFF9"/>
<path d="M81.0812 229.73H87.838V236.486H81.0812V229.73Z" fill="#B0FFF9"/>
<path d="M94.5948 229.73H101.352V236.486H94.5948V229.73Z" fill="#B0FFF9"/>
<path d="M101.352 229.73H108.108V236.486H101.352V229.73Z" fill="#B0FFF9"/>
<path d="M108.108 229.73H114.865V236.486H108.108V229.73Z" fill="#B0FFF9"/>
<path d="M141.892 229.73H148.649V236.486H141.892V229.73Z" fill="#B0FFF9"/>
<path d="M148.649 229.73H155.406V236.486H148.649V229.73Z" fill="#B0FFF9"/>
<path d="M168.919 229.73H175.676V236.486H168.919V229.73Z" fill="#B0FFF9"/>
<path d="M175.676 229.73H182.433V236.486H175.676V229.73Z" fill="#B0FFF9"/>
<path d="M202.703 229.73H209.46V236.486H202.703V229.73Z" fill="#B0FFF9"/>
<path d="M216.216 229.73H222.973V236.486H216.216V229.73Z" fill="#B0FFF9"/>
<path d="M20.2704 13.5135H13.5137V20.2703M20.2704 13.5135V20.2703M20.2704 13.5135H27.0272M20.2704 20.2703H13.5137M20.2704 20.2703H27.0272M20.2704 20.2703V27.027M13.5137 20.2703V27.027M27.0272 13.5135V20.2703M27.0272 13.5135H33.7839M27.0272 20.2703H33.7839M33.7839 13.5135V20.2703M33.7839 13.5135H40.5407M33.7839 20.2703H40.5407M40.5407 13.5135V20.2703M40.5407 13.5135H47.2975M40.5407 20.2703H47.2975M47.2975 13.5135V20.2703M47.2975 13.5135H54.0542M47.2975 20.2703H54.0542M54.0542 13.5135V20.2703M54.0542 13.5135H60.811V20.2703M54.0542 20.2703H60.811M54.0542 20.2703V27.027M60.811 20.2703V27.027M94.5948 20.2703V13.5135H87.838V20.2703M94.5948 20.2703H87.838M94.5948 20.2703V27.027M87.838 20.2703V27.027M108.108 20.2703V13.5135H101.352V20.2703M108.108 20.2703H101.352M108.108 20.2703V27.027M108.108 20.2703H114.865M101.352 20.2703V27.027M128.379 20.2703V13.5135H121.622V20.2703M128.379 20.2703H121.622M128.379 20.2703V27.027M121.622 20.2703H114.865M121.622 20.2703V27.027M148.649 13.5135H141.892V20.2703M148.649 13.5135V20.2703M148.649 13.5135H155.406M148.649 20.2703H141.892M148.649 20.2703H155.406M148.649 20.2703V27.027M141.892 20.2703H135.135V27.027M141.892 20.2703V27.027M155.406 13.5135V20.2703M155.406 13.5135H162.162M155.406 20.2703H162.162M155.406 20.2703V27.027M162.162 13.5135V20.2703M162.162 13.5135H168.919V20.2703H162.162M162.162 20.2703V27.027M182.433 20.2703V13.5135H175.676V20.2703M182.433 20.2703H175.676M182.433 20.2703V27.027M175.676 20.2703V27.027M195.946 13.5135H189.189V20.2703M195.946 13.5135V20.2703M195.946 13.5135H202.703M195.946 20.2703H189.189M195.946 20.2703H202.703M195.946 20.2703V27.027M189.189 20.2703V27.027M202.703 13.5135V20.2703M202.703 13.5135H209.46M202.703 20.2703H209.46M209.46 13.5135V20.2703M209.46 13.5135H216.216M209.46 20.2703H216.216M216.216 13.5135V20.2703M216.216 13.5135H222.973M216.216 20.2703H222.973M222.973 13.5135V20.2703M222.973 13.5135H229.73M222.973 20.2703H229.73M229.73 13.5135V20.2703M229.73 13.5135H236.487V20.2703M229.73 20.2703H236.487M229.73 20.2703V27.027M236.487 20.2703V27.027M20.2704 27.027H13.5137M20.2704 27.027V33.7838M13.5137 27.027V33.7838M60.811 27.027H54.0542M60.811 27.027V33.7838M54.0542 27.027V33.7838M94.5948 27.027H87.838M94.5948 27.027V33.7838M94.5948 27.027H101.352M87.838 27.027H81.0812V33.7838H87.838M87.838 27.027V33.7838M108.108 27.027H101.352M108.108 27.027H114.865M108.108 27.027V33.7838H101.352M101.352 27.027V33.7838M114.865 20.2703V27.027M114.865 27.027H121.622M114.865 27.027V33.7838M121.622 27.027H128.379M121.622 27.027V33.7838M128.379 27.027H135.135M128.379 27.027V33.7838H135.135M141.892 27.027H135.135M141.892 27.027H148.649M141.892 27.027V33.7838M135.135 27.027V33.7838M155.406 27.027H148.649M155.406 27.027H162.162M155.406 27.027V33.7838M148.649 27.027V33.7838H141.892M162.162 27.027V33.7838M162.162 27.027H168.919M182.433 27.027H175.676M182.433 27.027V33.7838M175.676 27.027H168.919M175.676 27.027V33.7838M195.946 27.027H189.189M195.946 27.027V33.7838M189.189 27.027V33.7838M236.487 27.027H229.73M236.487 27.027V33.7838M229.73 27.027V33.7838M20.2704 33.7838H13.5137M20.2704 33.7838V40.5405M13.5137 33.7838V40.5405M33.7839 27.027H27.0272V33.7838M33.7839 27.027V33.7838M33.7839 27.027H40.5407M33.7839 33.7838H27.0272M33.7839 33.7838H40.5407M33.7839 33.7838V40.5405M27.0272 33.7838V40.5405M40.5407 27.027V33.7838M40.5407 27.027H47.2975V33.7838M40.5407 33.7838H47.2975M40.5407 33.7838V40.5405M47.2975 33.7838V40.5405M60.811 33.7838H54.0542M60.811 33.7838V40.5405M54.0542 33.7838V40.5405M74.3245 33.7838V27.027H67.5677V33.7838M74.3245 33.7838H67.5677M74.3245 33.7838V40.5405M67.5677 33.7838V40.5405H74.3245M87.838 33.7838H94.5948M94.5948 33.7838H101.352M94.5948 33.7838V40.5405H101.352V33.7838M121.622 33.7838H114.865M121.622 33.7838V40.5405M114.865 33.7838V40.5405H121.622M135.135 33.7838H141.892M135.135 33.7838V40.5405M141.892 33.7838V40.5405M162.162 33.7838H155.406M162.162 33.7838H168.919M162.162 33.7838V40.5405M155.406 33.7838V40.5405M168.919 27.027V33.7838M168.919 33.7838H175.676M168.919 33.7838V40.5405M175.676 33.7838H182.433M175.676 33.7838V40.5405M182.433 33.7838V40.5405H175.676M195.946 33.7838H189.189M195.946 33.7838V40.5405M189.189 33.7838V40.5405M209.46 27.027H202.703V33.7838M209.46 27.027V33.7838M209.46 27.027H216.216M209.46 33.7838H202.703M209.46 33.7838H216.216M209.46 33.7838V40.5405M202.703 33.7838V40.5405M216.216 27.027V33.7838M216.216 27.027H222.973V33.7838M216.216 33.7838H222.973M216.216 33.7838V40.5405M222.973 33.7838V40.5405M236.487 33.7838H229.73M236.487 33.7838V40.5405M229.73 33.7838V40.5405M20.2704 40.5405H13.5137M20.2704 40.5405V47.2973M13.5137 40.5405V47.2973M33.7839 40.5405H27.0272M33.7839 40.5405H40.5407M33.7839 40.5405V47.2973M27.0272 40.5405V47.2973H33.7839M40.5407 40.5405H47.2975M40.5407 40.5405V47.2973M47.2975 40.5405V47.2973H40.5407M60.811 40.5405H54.0542M60.811 40.5405V47.2973M54.0542 40.5405V47.2973M74.3245 40.5405H81.0812M74.3245 40.5405V47.2973M121.622 40.5405H128.379M121.622 40.5405V47.2973M141.892 40.5405H135.135M141.892 40.5405V47.2973M135.135 40.5405H128.379M135.135 40.5405V47.2973M162.162 40.5405H155.406M162.162 40.5405V47.2973H155.406M155.406 40.5405H148.649V47.2973M155.406 40.5405V47.2973M175.676 40.5405H168.919M175.676 40.5405V47.2973M168.919 40.5405V47.2973H175.676M195.946 40.5405H189.189M195.946 40.5405V47.2973M189.189 40.5405V47.2973M209.46 40.5405H202.703M209.46 40.5405H216.216M209.46 40.5405V47.2973M202.703 40.5405V47.2973H209.46M216.216 40.5405H222.973M216.216 40.5405V47.2973M222.973 40.5405V47.2973H216.216M236.487 40.5405H229.73M236.487 40.5405V47.2973M229.73 40.5405V47.2973M20.2704 47.2973H13.5137M20.2704 47.2973V54.0541M13.5137 47.2973V54.0541M33.7839 47.2973H40.5407M60.811 47.2973H54.0542M60.811 47.2973V54.0541M54.0542 47.2973V54.0541M81.0812 40.5405V47.2973M81.0812 40.5405H87.838V47.2973M81.0812 47.2973H74.3245M81.0812 47.2973H87.838M81.0812 47.2973V54.0541M74.3245 47.2973V54.0541M87.838 47.2973V54.0541M128.379 40.5405V47.2973M128.379 47.2973H121.622M128.379 47.2973H135.135M121.622 47.2973H114.865M121.622 47.2973V54.0541M135.135 47.2973H141.892M141.892 47.2973H148.649M141.892 47.2973V54.0541M155.406 47.2973H148.649M155.406 47.2973V54.0541M148.649 47.2973V54.0541M175.676 47.2973H182.433V54.0541M175.676 47.2973V54.0541M195.946 47.2973H189.189M195.946 47.2973V54.0541M189.189 47.2973V54.0541M209.46 47.2973H216.216M236.487 47.2973H229.73M236.487 47.2973V54.0541M229.73 47.2973V54.0541M20.2704 54.0541H13.5137M20.2704 54.0541V60.8108M20.2704 54.0541H27.0272M13.5137 54.0541V60.8108H20.2704M60.811 54.0541H54.0542M60.811 54.0541V60.8108H54.0542M54.0542 54.0541H47.2975M54.0542 54.0541V60.8108M81.0812 54.0541H74.3245M81.0812 54.0541H87.838M81.0812 54.0541V60.8108H87.838M74.3245 54.0541H67.5677V60.8108H74.3245V54.0541ZM87.838 54.0541V60.8108M114.865 47.2973H108.108V54.0541M114.865 47.2973V54.0541M114.865 54.0541H108.108M114.865 54.0541H121.622M114.865 54.0541V60.8108M108.108 54.0541V60.8108M121.622 54.0541H128.379V60.8108M121.622 54.0541V60.8108M148.649 54.0541H141.892M148.649 54.0541H155.406M148.649 54.0541V60.8108H155.406V54.0541M141.892 54.0541H135.135V60.8108M141.892 54.0541V60.8108M182.433 54.0541H175.676M182.433 54.0541V60.8108H175.676M175.676 54.0541V60.8108M195.946 54.0541H189.189M195.946 54.0541V60.8108M195.946 54.0541H202.703M189.189 54.0541V60.8108H195.946M236.487 54.0541H229.73M236.487 54.0541V60.8108H229.73M229.73 54.0541H222.973M229.73 54.0541V60.8108M20.2704 60.8108H27.0272M27.0272 54.0541V60.8108M27.0272 54.0541H33.7839M27.0272 60.8108H33.7839M33.7839 54.0541V60.8108M33.7839 54.0541H40.5407M33.7839 60.8108H40.5407M40.5407 54.0541V60.8108M40.5407 54.0541H47.2975M40.5407 60.8108H47.2975M47.2975 54.0541V60.8108M47.2975 60.8108H54.0542M87.838 60.8108H94.5948M87.838 60.8108V67.5676M101.352 60.8108V54.0541H94.5948V60.8108M101.352 60.8108H94.5948M101.352 60.8108H108.108M101.352 60.8108V67.5676M94.5948 60.8108V67.5676M114.865 60.8108H108.108M114.865 60.8108V67.5676M114.865 60.8108H121.622M108.108 60.8108V67.5676M128.379 60.8108H121.622M128.379 60.8108V67.5676M121.622 60.8108V67.5676M141.892 60.8108H135.135M141.892 60.8108V67.5676M135.135 60.8108V67.5676M168.919 60.8108V54.0541H162.162V60.8108H168.919ZM168.919 60.8108H175.676M168.919 60.8108V67.5676M175.676 60.8108V67.5676M195.946 60.8108H202.703M202.703 54.0541V60.8108M202.703 54.0541H209.46M202.703 60.8108H209.46M209.46 54.0541V60.8108M209.46 54.0541H216.216M209.46 60.8108H216.216M216.216 54.0541V60.8108M216.216 54.0541H222.973M216.216 60.8108H222.973M222.973 54.0541V60.8108M222.973 60.8108H229.73M94.5948 67.5676H87.838M94.5948 67.5676V74.3243M94.5948 67.5676H101.352M87.838 67.5676V74.3243M108.108 67.5676H101.352M108.108 67.5676H114.865M108.108 67.5676V74.3243M101.352 67.5676V74.3243M114.865 67.5676H121.622M114.865 67.5676V74.3243M121.622 67.5676H128.379M121.622 67.5676V74.3243M128.379 67.5676V74.3243M141.892 67.5676H135.135M141.892 67.5676V74.3243M141.892 67.5676H148.649M135.135 67.5676V74.3243M175.676 67.5676H168.919M175.676 67.5676V74.3243M168.919 67.5676V74.3243M40.5407 67.5676H33.7839V74.3243M40.5407 67.5676V74.3243M40.5407 67.5676H47.2975V74.3243M40.5407 74.3243H33.7839M40.5407 74.3243H47.2975M40.5407 74.3243V81.0811M33.7839 74.3243V81.0811M47.2975 74.3243V81.0811M47.2975 74.3243H54.0542M60.811 67.5676H54.0542V74.3243M60.811 67.5676V74.3243M60.811 67.5676H67.5677V74.3243M60.811 74.3243H54.0542M60.811 74.3243H67.5677M54.0542 74.3243V81.0811M67.5677 74.3243H74.3245M67.5677 74.3243V81.0811M81.0812 74.3243V67.5676H74.3245V74.3243M81.0812 74.3243H74.3245M81.0812 74.3243V81.0811M81.0812 74.3243H87.838M74.3245 74.3243V81.0811M94.5948 74.3243H87.838M94.5948 74.3243H101.352M94.5948 74.3243V81.0811M87.838 74.3243V81.0811M101.352 74.3243H108.108M101.352 74.3243V81.0811M108.108 74.3243H114.865M114.865 74.3243H121.622M114.865 74.3243V81.0811H121.622V74.3243M128.379 74.3243H121.622M128.379 74.3243H135.135M128.379 74.3243V81.0811H135.135V74.3243M141.892 74.3243H135.135M141.892 74.3243H148.649M148.649 67.5676V74.3243M148.649 67.5676H155.406V74.3243M148.649 74.3243H155.406M148.649 74.3243V81.0811M155.406 74.3243V81.0811M175.676 74.3243H168.919M175.676 74.3243V81.0811M168.919 74.3243H162.162V81.0811M168.919 74.3243V81.0811M216.216 67.5676H209.46V74.3243M216.216 67.5676V74.3243M216.216 67.5676H222.973V74.3243H216.216M216.216 74.3243H209.46M216.216 74.3243V81.0811M209.46 74.3243H202.703M209.46 74.3243V81.0811M20.2704 74.3243H13.5137V81.0811M20.2704 74.3243V81.0811M20.2704 74.3243H27.0272V81.0811H20.2704M20.2704 81.0811H13.5137M20.2704 81.0811V87.8378H13.5137V81.0811M40.5407 81.0811H33.7839M40.5407 81.0811H47.2975M40.5407 81.0811V87.8378M33.7839 81.0811V87.8378M47.2975 81.0811H54.0542M47.2975 81.0811V87.8378M54.0542 81.0811H60.811V87.8378H54.0542V81.0811ZM74.3245 81.0811H67.5677M74.3245 81.0811H81.0812M74.3245 81.0811V87.8378M67.5677 81.0811V87.8378H74.3245M81.0812 81.0811H87.838M81.0812 81.0811V87.8378M87.838 81.0811V87.8378M87.838 81.0811H94.5948M101.352 81.0811H94.5948M101.352 81.0811V87.8378M101.352 81.0811H108.108V87.8378H101.352M94.5948 81.0811V87.8378M155.406 81.0811H148.649M155.406 81.0811V87.8378M155.406 81.0811H162.162M148.649 81.0811H141.892V87.8378M148.649 81.0811V87.8378M168.919 81.0811H162.162M168.919 81.0811H175.676M168.919 81.0811V87.8378M162.162 81.0811V87.8378H155.406M175.676 81.0811V87.8378M189.189 81.0811V74.3243H182.433V81.0811M189.189 81.0811H182.433M189.189 81.0811V87.8378M189.189 81.0811H195.946M182.433 81.0811V87.8378M202.703 74.3243H195.946V81.0811M202.703 74.3243V81.0811M202.703 81.0811H195.946M202.703 81.0811H209.46M202.703 81.0811V87.8378M195.946 81.0811V87.8378M209.46 81.0811H216.216M209.46 81.0811V87.8378M216.216 81.0811V87.8378M40.5407 87.8378H33.7839M40.5407 87.8378H47.2975M40.5407 87.8378V94.5946M33.7839 87.8378H27.0272V94.5946H33.7839M33.7839 87.8378V94.5946M47.2975 87.8378V94.5946M74.3245 87.8378H81.0812M74.3245 87.8378V94.5946M87.838 87.8378H81.0812M87.838 87.8378H94.5948M81.0812 87.8378V94.5946M94.5948 87.8378H101.352M94.5948 87.8378V94.5946H101.352V87.8378M148.649 87.8378H141.892M148.649 87.8378H155.406M148.649 87.8378V94.5946M141.892 87.8378H135.135M141.892 87.8378V94.5946M155.406 87.8378V94.5946M175.676 87.8378H168.919M175.676 87.8378V94.5946M168.919 87.8378V94.5946M189.189 87.8378H182.433M189.189 87.8378H195.946M189.189 87.8378V94.5946M182.433 87.8378V94.5946H189.189M195.946 87.8378H202.703M195.946 87.8378V94.5946M202.703 87.8378V94.5946M202.703 87.8378H209.46M216.216 87.8378H209.46M216.216 87.8378H222.973M216.216 87.8378V94.5946M209.46 87.8378V94.5946M229.73 81.0811H222.973V87.8378M229.73 81.0811V87.8378M229.73 81.0811H236.487V87.8378H229.73M229.73 87.8378H222.973M222.973 87.8378V94.5946H216.216M33.7839 94.5946H40.5407M40.5407 94.5946H47.2975M40.5407 94.5946V101.351M47.2975 94.5946V101.351M81.0812 94.5946H74.3245M81.0812 94.5946V101.351M74.3245 94.5946H67.5677V101.351H74.3245M74.3245 94.5946V101.351M135.135 87.8378H128.379V94.5946H135.135M135.135 87.8378V94.5946M135.135 94.5946H141.892M141.892 94.5946H148.649M148.649 94.5946H155.406M155.406 94.5946H162.162M155.406 94.5946V101.351M175.676 94.5946H168.919M175.676 94.5946V101.351M168.919 94.5946H162.162M168.919 94.5946V101.351M189.189 94.5946H195.946M189.189 94.5946V101.351M202.703 94.5946H195.946M202.703 94.5946H209.46M202.703 94.5946V101.351H209.46M195.946 94.5946V101.351H189.189M209.46 94.5946V101.351M209.46 94.5946H216.216M216.216 94.5946V101.351M20.2704 101.351V94.5946H13.5137V101.351M20.2704 101.351H13.5137M20.2704 101.351V108.108M20.2704 101.351H27.0272M13.5137 101.351V108.108M47.2975 101.351H40.5407M47.2975 101.351H54.0542M47.2975 101.351V108.108M40.5407 101.351H33.7839M40.5407 101.351V108.108M54.0542 101.351H60.811V94.5946H54.0542V101.351ZM54.0542 101.351V108.108M74.3245 101.351H81.0812M74.3245 101.351V108.108H81.0812M81.0812 101.351V108.108M162.162 94.5946V101.351M162.162 101.351H155.406M162.162 101.351H168.919M162.162 101.351V108.108M155.406 101.351V108.108H162.162M168.919 101.351H175.676M168.919 101.351V108.108M175.676 101.351V108.108H168.919M189.189 101.351H182.433V108.108H189.189M189.189 101.351V108.108M209.46 101.351H216.216M216.216 101.351H222.973M216.216 101.351V108.108M229.73 101.351H236.487V94.5946H229.73V101.351ZM229.73 101.351H222.973M229.73 101.351V108.108H222.973M20.2704 108.108H13.5137M20.2704 108.108H27.0272M20.2704 108.108V114.865M13.5137 108.108V114.865M27.0272 101.351V108.108M27.0272 101.351H33.7839M27.0272 108.108H33.7839M33.7839 101.351V108.108M33.7839 108.108H40.5407M33.7839 108.108V114.865H40.5407M40.5407 108.108V114.865M40.5407 108.108H47.2975M54.0542 108.108H47.2975M54.0542 108.108V114.865M54.0542 108.108H60.811M47.2975 108.108V114.865M81.0812 108.108H87.838M81.0812 108.108V114.865M94.5948 108.108V101.351H87.838V108.108M94.5948 108.108H87.838M94.5948 108.108V114.865M87.838 108.108V114.865M162.162 108.108H168.919M189.189 108.108H195.946V114.865H189.189M189.189 108.108V114.865M222.973 101.351V108.108M222.973 108.108H216.216M222.973 108.108V114.865M216.216 108.108V114.865M20.2704 114.865H13.5137M20.2704 114.865V121.622M13.5137 114.865V121.622H20.2704M40.5407 114.865H47.2975M40.5407 114.865V121.622M47.2975 114.865H54.0542M47.2975 114.865V121.622M54.0542 114.865H60.811M60.811 108.108V114.865M60.811 108.108H67.5677V114.865H60.811M87.838 114.865H81.0812M87.838 114.865H94.5948M87.838 114.865V121.622M81.0812 114.865H74.3245V121.622M81.0812 114.865V121.622M94.5948 114.865V121.622M189.189 114.865H182.433V121.622M189.189 114.865V121.622M209.46 114.865V108.108H202.703V114.865M209.46 114.865H202.703M209.46 114.865V121.622M202.703 114.865V121.622M222.973 114.865H216.216M222.973 114.865V121.622M222.973 114.865H229.73V121.622H222.973M216.216 114.865V121.622M20.2704 121.622H27.0272M20.2704 121.622V128.378M47.2975 121.622H40.5407M47.2975 121.622V128.378M40.5407 121.622H33.7839M40.5407 121.622V128.378M81.0812 121.622H74.3245M81.0812 121.622V128.378M81.0812 121.622H87.838M74.3245 121.622V128.378M94.5948 121.622H87.838M94.5948 121.622V128.378H87.838M87.838 121.622V128.378M175.676 121.622V114.865H168.919V121.622M175.676 121.622H168.919M175.676 121.622V128.378M168.919 121.622V128.378M189.189 121.622H182.433M189.189 121.622V128.378M189.189 121.622H195.946M182.433 121.622V128.378M209.46 121.622H202.703M209.46 121.622V128.378M209.46 121.622H216.216M202.703 121.622H195.946M202.703 121.622V128.378M222.973 121.622H216.216M222.973 121.622V128.378M216.216 121.622V128.378M27.0272 121.622V128.378M27.0272 121.622H33.7839M27.0272 128.378H20.2704M27.0272 128.378H33.7839M27.0272 128.378V135.135M20.2704 128.378H13.5137V135.135H20.2704M20.2704 128.378V135.135M33.7839 121.622V128.378M33.7839 128.378H40.5407M33.7839 128.378V135.135M40.5407 128.378H47.2975M40.5407 128.378V135.135M47.2975 128.378V135.135M60.811 128.378V121.622H54.0542V128.378H60.811ZM60.811 128.378H67.5677M60.811 128.378V135.135M81.0812 128.378H74.3245M81.0812 128.378H87.838M81.0812 128.378V135.135M74.3245 128.378H67.5677M74.3245 128.378V135.135M87.838 128.378V135.135M175.676 128.378H168.919M175.676 128.378H182.433M175.676 128.378V135.135M168.919 128.378H162.162M168.919 128.378V135.135M189.189 128.378H182.433M189.189 128.378H195.946M189.189 128.378V135.135H195.946V128.378M182.433 128.378V135.135H175.676M195.946 121.622V128.378M195.946 128.378H202.703M202.703 128.378H209.46M202.703 128.378V135.135H209.46M209.46 128.378H216.216M209.46 128.378V135.135M216.216 128.378H222.973M216.216 128.378V135.135M222.973 128.378H229.73M222.973 128.378V135.135M20.2704 135.135H27.0272M27.0272 135.135H33.7839M33.7839 135.135H40.5407M33.7839 135.135V141.892M40.5407 135.135H47.2975M40.5407 135.135V141.892M47.2975 135.135V141.892M67.5677 128.378V135.135M67.5677 135.135H60.811M67.5677 135.135H74.3245M67.5677 135.135V141.892M60.811 135.135H54.0542V141.892M60.811 135.135V141.892M74.3245 135.135V141.892M74.3245 135.135H81.0812M87.838 135.135H81.0812M87.838 135.135V141.892M81.0812 135.135V141.892M162.162 128.378H155.406V135.135M162.162 128.378V135.135M162.162 135.135H155.406M162.162 135.135H168.919M162.162 135.135V141.892M155.406 135.135V141.892H162.162M168.919 135.135V141.892M168.919 135.135H175.676M175.676 135.135V141.892M209.46 135.135H216.216M209.46 135.135V141.892M216.216 135.135V141.892M216.216 135.135H222.973M229.73 128.378V135.135M229.73 128.378H236.487V135.135M229.73 135.135H222.973M229.73 135.135H236.487M229.73 135.135V141.892M222.973 135.135V141.892M236.487 135.135V141.892M40.5407 141.892H33.7839M40.5407 141.892H47.2975M40.5407 141.892V148.649M33.7839 141.892H27.0272M33.7839 141.892V148.649H27.0272M47.2975 141.892V148.649M47.2975 141.892H54.0542M60.811 141.892H54.0542M60.811 141.892H67.5677M54.0542 141.892V148.649M67.5677 141.892H74.3245M67.5677 141.892V148.649H74.3245M74.3245 141.892H81.0812M74.3245 141.892V148.649M81.0812 141.892H87.838M81.0812 141.892V148.649M87.838 141.892V148.649H81.0812M162.162 141.892H168.919M162.162 141.892V148.649H168.919M168.919 141.892H175.676M168.919 141.892V148.649M175.676 141.892V148.649M175.676 141.892H182.433M216.216 141.892H209.46M216.216 141.892H222.973M216.216 141.892V148.649M209.46 141.892H202.703M209.46 141.892V148.649M222.973 141.892V148.649M222.973 141.892H229.73M236.487 141.892H229.73M236.487 141.892V148.649H229.73M229.73 141.892V148.649M27.0272 141.892H20.2704V148.649M27.0272 141.892V148.649M27.0272 148.649H20.2704M20.2704 148.649H13.5137V155.405M20.2704 148.649V155.405M47.2975 148.649H40.5407M47.2975 148.649H54.0542M47.2975 148.649V155.405M40.5407 148.649V155.405H47.2975M54.0542 148.649V155.405M54.0542 148.649H60.811V155.405H54.0542M74.3245 148.649H81.0812M74.3245 148.649V155.405M81.0812 148.649V155.405H74.3245M168.919 148.649H175.676M175.676 148.649H182.433M182.433 141.892V148.649M182.433 141.892H189.189V148.649M182.433 148.649H189.189M189.189 148.649H195.946M189.189 148.649V155.405M202.703 141.892H195.946V148.649M202.703 141.892V148.649M202.703 148.649H195.946M202.703 148.649H209.46M202.703 148.649V155.405M195.946 148.649V155.405M209.46 148.649H216.216M209.46 148.649V155.405M216.216 148.649H222.973M216.216 148.649V155.405M222.973 148.649H229.73M222.973 148.649V155.405H229.73V148.649M20.2704 155.405H13.5137M20.2704 155.405V162.162M20.2704 155.405H27.0272M13.5137 155.405V162.162M47.2975 155.405H54.0542M74.3245 155.405H67.5677V162.162M74.3245 155.405V162.162M195.946 155.405H189.189M195.946 155.405H202.703M195.946 155.405V162.162M189.189 155.405V162.162M202.703 155.405V162.162M202.703 155.405H209.46M216.216 155.405H209.46M216.216 155.405V162.162H209.46M209.46 155.405V162.162M20.2704 162.162H13.5137M20.2704 162.162H27.0272M20.2704 162.162V168.919M13.5137 162.162V168.919M27.0272 155.405V162.162M27.0272 155.405H33.7839V162.162M27.0272 162.162H33.7839M27.0272 162.162V168.919H33.7839M33.7839 162.162V168.919M33.7839 162.162H40.5407V168.919M74.3245 162.162H67.5677M74.3245 162.162V168.919M67.5677 162.162V168.919M87.838 162.162H94.5948V155.405H87.838V162.162ZM87.838 162.162H81.0812V168.919M87.838 162.162V168.919M114.865 162.162V155.405H108.108V162.162M114.865 162.162H108.108M114.865 162.162V168.919M108.108 162.162V168.919H114.865M168.919 162.162V155.405H162.162V162.162M168.919 162.162H162.162M168.919 162.162H175.676M168.919 162.162V168.919M162.162 162.162H155.406V168.919H162.162V162.162ZM175.676 162.162H182.433V155.405H175.676V162.162ZM175.676 162.162V168.919M195.946 162.162H189.189M195.946 162.162H202.703M195.946 162.162V168.919M189.189 162.162V168.919H195.946M202.703 162.162H209.46M202.703 162.162V168.919M20.2704 168.919H13.5137M20.2704 168.919V175.676M13.5137 168.919V175.676M33.7839 168.919H40.5407M33.7839 168.919V175.676M40.5407 168.919V175.676M40.5407 168.919H47.2975M54.0542 162.162H47.2975V168.919M54.0542 162.162V168.919M54.0542 162.162H60.811V168.919M54.0542 168.919H47.2975M54.0542 168.919H60.811M47.2975 168.919V175.676M60.811 168.919H67.5677M60.811 168.919V175.676M74.3245 168.919H67.5677M74.3245 168.919H81.0812M74.3245 168.919V175.676M67.5677 168.919V175.676M87.838 168.919H81.0812M87.838 168.919H94.5948V175.676M87.838 168.919V175.676M81.0812 168.919V175.676M114.865 168.919H121.622V175.676M114.865 168.919V175.676M141.892 162.162H135.135V168.919M141.892 162.162V168.919M141.892 162.162H148.649V168.919H141.892M141.892 168.919H135.135M135.135 168.919H128.379V175.676H135.135V168.919ZM175.676 168.919H168.919M175.676 168.919V175.676M175.676 168.919H182.433V175.676M168.919 168.919V175.676M195.946 168.919H202.703M195.946 168.919V175.676M202.703 168.919V175.676M202.703 168.919H209.46V175.676M20.2704 175.676H13.5137M20.2704 175.676V182.432M20.2704 175.676H27.0272M13.5137 175.676V182.432H20.2704M40.5407 175.676H33.7839M40.5407 175.676H47.2975M33.7839 175.676H27.0272M33.7839 175.676V182.432H27.0272M47.2975 175.676H54.0542M47.2975 175.676V182.432H54.0542M67.5677 175.676H60.811M67.5677 175.676V182.432M67.5677 175.676H74.3245M60.811 175.676H54.0542M60.811 175.676V182.432M81.0812 175.676H74.3245M81.0812 175.676V182.432M81.0812 175.676H87.838M74.3245 175.676V182.432M94.5948 175.676H87.838M94.5948 175.676V182.432M94.5948 175.676H101.352M87.838 175.676V182.432M121.622 175.676H114.865M121.622 175.676V182.432H114.865M114.865 175.676V182.432M175.676 175.676H168.919M175.676 175.676H182.433M175.676 175.676V182.432M168.919 175.676V182.432M182.433 175.676V182.432M182.433 175.676H189.189M202.703 175.676H195.946M202.703 175.676H209.46M202.703 175.676V182.432M195.946 175.676H189.189M195.946 175.676V182.432M209.46 175.676V182.432M20.2704 182.432H27.0272M27.0272 175.676V182.432M54.0542 175.676V182.432M54.0542 182.432H60.811M60.811 182.432H67.5677M67.5677 182.432H74.3245M67.5677 182.432V189.189M74.3245 182.432H81.0812M74.3245 182.432V189.189M81.0812 182.432H87.838M81.0812 182.432V189.189M87.838 182.432H94.5948M87.838 182.432V189.189M94.5948 182.432H101.352M94.5948 182.432V189.189H87.838M101.352 175.676V182.432M101.352 175.676H108.108V182.432M101.352 182.432H108.108M108.108 182.432H114.865M108.108 182.432V189.189M114.865 182.432V189.189M148.649 182.432V175.676H141.892V182.432M148.649 182.432H141.892M148.649 182.432V189.189M141.892 182.432V189.189M175.676 182.432H168.919M175.676 182.432H182.433M175.676 182.432V189.189M168.919 182.432H162.162M168.919 182.432V189.189M182.433 182.432H189.189M182.433 182.432V189.189M189.189 175.676V182.432M189.189 182.432H195.946M195.946 182.432H202.703M202.703 182.432H209.46M202.703 182.432V189.189M209.46 182.432V189.189M74.3245 189.189H67.5677M74.3245 189.189H81.0812M74.3245 189.189V195.946M67.5677 189.189V195.946H74.3245M81.0812 189.189H87.838M81.0812 189.189V195.946M87.838 189.189V195.946H81.0812M114.865 189.189H108.108M114.865 189.189V195.946M114.865 189.189H121.622V195.946H114.865M108.108 189.189V195.946H114.865M148.649 189.189H141.892M148.649 189.189V195.946H141.892M141.892 189.189H135.135M141.892 189.189V195.946M162.162 182.432H155.406V189.189H162.162M162.162 182.432V189.189M162.162 189.189H168.919M168.919 189.189H175.676M168.919 189.189V195.946M182.433 189.189H175.676M182.433 189.189V195.946M175.676 189.189V195.946M209.46 189.189H202.703M209.46 189.189V195.946M209.46 189.189H216.216M202.703 189.189V195.946M20.2704 189.189H13.5137V195.946M20.2704 189.189V195.946M20.2704 189.189H27.0272M20.2704 195.946H13.5137M20.2704 195.946H27.0272M20.2704 195.946V202.703M13.5137 195.946V202.703M27.0272 189.189V195.946M27.0272 189.189H33.7839M27.0272 195.946H33.7839M33.7839 189.189V195.946M33.7839 189.189H40.5407M33.7839 195.946H40.5407M40.5407 189.189V195.946M40.5407 189.189H47.2975M40.5407 195.946H47.2975M47.2975 189.189V195.946M47.2975 189.189H54.0542M47.2975 195.946H54.0542M54.0542 189.189V195.946M54.0542 189.189H60.811V195.946M54.0542 195.946H60.811M54.0542 195.946V202.703M60.811 195.946V202.703M74.3245 195.946H81.0812M74.3245 195.946V202.703M81.0812 195.946V202.703M135.135 189.189H128.379V195.946H135.135M135.135 189.189V195.946M135.135 195.946H141.892M135.135 195.946V202.703M141.892 195.946V202.703M175.676 195.946H168.919M175.676 195.946H182.433M175.676 195.946V202.703M168.919 195.946H162.162M168.919 195.946V202.703M182.433 195.946V202.703M209.46 195.946H202.703M209.46 195.946H216.216M209.46 195.946V202.703M202.703 195.946V202.703M216.216 189.189V195.946M216.216 189.189H222.973V195.946M216.216 195.946H222.973M216.216 195.946V202.703M222.973 195.946V202.703M222.973 195.946H229.73V202.703M20.2704 202.703H13.5137M20.2704 202.703V209.459M13.5137 202.703V209.459M60.811 202.703H54.0542M60.811 202.703V209.459M54.0542 202.703V209.459M81.0812 202.703H74.3245M81.0812 202.703H87.838M81.0812 202.703V209.459M74.3245 202.703H67.5677V209.459M74.3245 202.703V209.459M101.352 202.703V195.946H94.5948V202.703M101.352 202.703H94.5948M101.352 202.703H108.108M101.352 202.703V209.459M94.5948 202.703H87.838M94.5948 202.703V209.459M141.892 202.703H135.135M141.892 202.703V209.459H135.135M135.135 202.703V209.459M162.162 195.946H155.406V202.703M162.162 195.946V202.703M162.162 202.703H155.406M162.162 202.703H168.919M162.162 202.703V209.459M155.406 202.703H148.649V209.459M155.406 202.703V209.459M168.919 202.703H175.676M168.919 202.703V209.459M175.676 202.703H182.433M175.676 202.703V209.459M182.433 202.703V209.459M182.433 202.703H189.189M209.46 202.703H202.703M209.46 202.703H216.216M209.46 202.703V209.459M202.703 202.703H195.946M202.703 202.703V209.459M216.216 202.703H222.973M216.216 202.703V209.459H209.46M222.973 202.703H229.73M222.973 202.703V209.459M229.73 202.703V209.459M20.2704 209.459H13.5137M20.2704 209.459V216.216M13.5137 209.459V216.216M33.7839 202.703H27.0272V209.459M33.7839 202.703V209.459M33.7839 202.703H40.5407M33.7839 209.459H27.0272M33.7839 209.459H40.5407M33.7839 209.459V216.216M27.0272 209.459V216.216M40.5407 202.703V209.459M40.5407 202.703H47.2975V209.459M40.5407 209.459H47.2975M40.5407 209.459V216.216M47.2975 209.459V216.216M60.811 209.459H54.0542M60.811 209.459V216.216M54.0542 209.459V216.216M74.3245 209.459H67.5677M74.3245 209.459V216.216M74.3245 209.459H81.0812M67.5677 209.459V216.216H74.3245M87.838 202.703V209.459M87.838 209.459H81.0812M87.838 209.459H94.5948M87.838 209.459V216.216M81.0812 209.459V216.216M94.5948 209.459H101.352M94.5948 209.459V216.216M108.108 202.703V209.459M108.108 202.703H114.865V209.459M108.108 209.459H101.352M108.108 209.459H114.865M108.108 209.459V216.216M101.352 209.459V216.216M114.865 209.459V216.216M128.379 209.459V202.703H121.622V209.459M128.379 209.459H121.622M128.379 209.459V216.216M128.379 209.459H135.135M121.622 209.459V216.216M135.135 209.459V216.216M155.406 209.459H148.649M155.406 209.459H162.162M155.406 209.459V216.216M148.649 209.459V216.216M162.162 209.459H168.919M162.162 209.459V216.216M168.919 209.459H175.676M168.919 209.459V216.216H162.162M175.676 209.459H182.433M182.433 209.459H189.189M182.433 209.459V216.216M189.189 202.703V209.459M189.189 202.703H195.946M189.189 209.459H195.946M189.189 209.459V216.216H182.433M195.946 202.703V209.459M195.946 209.459H202.703M195.946 209.459V216.216H202.703M202.703 209.459H209.46M202.703 209.459V216.216M229.73 209.459H222.973M229.73 209.459V216.216M222.973 209.459V216.216M20.2704 216.216H13.5137M20.2704 216.216V222.973M13.5137 216.216V222.973M33.7839 216.216H27.0272M33.7839 216.216H40.5407M33.7839 216.216V222.973M27.0272 216.216V222.973H33.7839M40.5407 216.216H47.2975M40.5407 216.216V222.973M47.2975 216.216V222.973H40.5407M60.811 216.216H54.0542M60.811 216.216V222.973M54.0542 216.216V222.973M74.3245 216.216H81.0812M81.0812 216.216H87.838M81.0812 216.216V222.973M87.838 216.216V222.973M87.838 216.216H94.5948M101.352 216.216H94.5948M101.352 216.216V222.973M94.5948 216.216V222.973M114.865 216.216H108.108M114.865 216.216V222.973M108.108 216.216V222.973M128.379 216.216H121.622M128.379 216.216H135.135M128.379 216.216V222.973M121.622 216.216V222.973M135.135 216.216V222.973M155.406 216.216H148.649M155.406 216.216H162.162M155.406 216.216V222.973M148.649 216.216V222.973M182.433 216.216H175.676V222.973H182.433V216.216ZM202.703 216.216H209.46M202.703 216.216V222.973H209.46M229.73 216.216H222.973M229.73 216.216V222.973M229.73 216.216H236.487V222.973M222.973 216.216V222.973M20.2704 222.973H13.5137M20.2704 222.973V229.73M13.5137 222.973V229.73M33.7839 222.973H40.5407M60.811 222.973H54.0542M60.811 222.973V229.73M54.0542 222.973V229.73M87.838 222.973H81.0812M87.838 222.973H94.5948M87.838 222.973V229.73M81.0812 222.973H74.3245V229.73M81.0812 222.973V229.73M94.5948 222.973H101.352M94.5948 222.973V229.73M101.352 222.973V229.73M101.352 222.973H108.108M114.865 222.973H108.108M114.865 222.973V229.73M114.865 222.973H121.622M108.108 222.973V229.73M128.379 222.973H121.622M128.379 222.973H135.135M128.379 222.973V229.73H135.135M121.622 222.973V229.73H114.865M135.135 222.973V229.73M135.135 222.973H141.892M155.406 222.973H148.649M155.406 222.973V229.73M148.649 222.973H141.892M148.649 222.973V229.73M209.46 216.216V222.973M209.46 216.216H216.216V222.973M209.46 222.973H216.216M209.46 222.973V229.73M216.216 222.973V229.73M229.73 222.973H222.973M229.73 222.973H236.487M229.73 222.973V229.73M222.973 222.973V229.73M236.487 222.973V229.73H229.73M20.2704 229.73H13.5137M20.2704 229.73V236.486M20.2704 229.73H27.0272M13.5137 229.73V236.486H20.2704M60.811 229.73H54.0542M60.811 229.73V236.486H54.0542M54.0542 229.73H47.2975M54.0542 229.73V236.486M81.0812 229.73H74.3245M81.0812 229.73V236.486M81.0812 229.73H87.838M74.3245 229.73V236.486H81.0812M94.5948 229.73H87.838M94.5948 229.73H101.352M94.5948 229.73V236.486H101.352M87.838 229.73V236.486H81.0812M101.352 229.73H108.108M101.352 229.73V236.486M108.108 229.73H114.865M108.108 229.73V236.486M114.865 229.73V236.486H108.108M135.135 229.73H141.892M141.892 222.973V229.73M141.892 229.73H148.649M141.892 229.73V236.486H148.649M148.649 229.73H155.406M148.649 229.73V236.486M155.406 229.73V236.486H148.649M168.919 229.73V222.973H162.162V229.73H168.919ZM168.919 229.73H175.676M168.919 229.73V236.486H175.676M216.216 229.73H209.46M216.216 229.73H222.973M216.216 229.73V236.486H222.973V229.73M209.46 229.73H202.703V236.486H209.46V229.73ZM229.73 229.73H222.973M20.2704 236.486H27.0272M27.0272 229.73V236.486M27.0272 229.73H33.7839M27.0272 236.486H33.7839M33.7839 229.73V236.486M33.7839 229.73H40.5407M33.7839 236.486H40.5407M40.5407 229.73V236.486M40.5407 229.73H47.2975M40.5407 236.486H47.2975M47.2975 229.73V236.486M47.2975 236.486H54.0542M101.352 236.486H108.108M175.676 229.73V236.486M175.676 229.73H182.433V236.486H175.676M114.865 87.8378H121.622V94.5946H114.865V87.8378ZM121.622 155.405H128.379V162.162H121.622V155.405ZM229.73 162.162H236.487V168.919H229.73V162.162ZM216.216 168.919H222.973V175.676H216.216V168.919ZM229.73 175.676H236.487V182.432H229.73V175.676ZM189.189 189.189H195.946V195.946H189.189V189.189Z" stroke="#B0FFF9" stroke-width="0.5"/>
<path fill-rule="evenodd" clip-rule="evenodd" d="M125.21 101.293C137.869 101.293 148.131 111.555 148.131 124.214C148.131 136.873 137.869 147.135 125.21 147.135C112.551 147.135 102.289 136.873 102.289 124.214C102.289 111.555 112.551 101.293 125.21 101.293ZM119.98 131.491H125.21H130.306L132.85 128.944V126.397H117.57V128.944L119.98 131.491ZM107.383 118.757C107.383 120.163 108.523 121.304 109.929 121.304C111.336 121.304 112.476 120.163 112.476 118.757C112.476 117.351 111.336 116.21 109.929 116.21C108.523 116.21 107.383 117.351 107.383 118.757ZM137.944 118.757C137.944 120.163 139.084 121.304 140.49 121.304C141.897 121.304 143.037 120.163 143.037 118.757C143.037 117.35 141.897 116.21 140.49 116.21C139.084 116.21 137.944 117.35 137.944 118.757Z" fill="#B0FFF9"/>
<path d="M22.5 267.279V263.779H33V267.279H22.5ZM29.5 277.779V274.279H22.5V270.779H19V267.279H22.5V270.779H29.5V274.279H33V277.779H29.5ZM19 281.279V277.779H29.5V281.279H19ZM50.5 270.779V267.279H43.5V263.779H50.5V267.279H54V270.779H50.5ZM43.5 281.279V277.779H40V267.279H43.5V277.779H50.5V281.279H43.5ZM50.5 277.779V274.279H54V277.779H50.5ZM61 281.279V267.279H64.5V263.779H71.5V267.279H75V281.279H71.5V274.279H64.5V281.279H61ZM64.5 270.779H71.5V267.419H64.5V270.779ZM82 281.279V263.779H85.5V267.279H89V270.779H92.5V274.279H96V263.779H99.5V281.279H96V277.779H92.5V274.279H89V270.779H85.5V281.279H82ZM124 281.279V277.779H120.5V267.279H124V263.779H131V267.279H134.5V277.779H131V281.279H124ZM124 277.639H131V267.419H124V277.639ZM141.5 281.279V263.779H152V267.279H155.5V270.779H152V277.779H155.5V281.279H152V277.779H148.5V274.279H145V281.279H141.5ZM145 270.779H151.86V267.279H145V270.779ZM180 281.279V267.279H176.5V263.779H187V267.279H183.5V281.279H180ZM194 281.279V267.279H197.5V263.779H204.5V267.279H208V281.279H204.5V274.279H197.5V281.279H194ZM197.5 270.779H204.5V267.419H197.5V270.779ZM215 281.279V263.779H225.5V267.279H229V270.779H225.5V274.279H218.5V281.279H215ZM218.5 270.779H225.36V267.279H218.5V270.779Z" fill="#B0FFF9"/>
</svg>
